<svg xmlns="http://www.w3.org/2000/svg" xmlns:xlink="http://www.w3.org/1999/xlink" xmlns:lucid="lucid" width="1212.67" height="1125.12"><g transform="translate(1571.8545658141622 650)" lucid:page-tab-id="0_0"><path d="M-2000-1000H0V500h-2000z" fill="#fff"/><path d="M-1116-91.08h300v231h-300z" stroke="#333" stroke-width="2" fill="#fff"/><path d="M-1116-54.83h300m-300 137.78h300" stroke="#333" stroke-width="2" fill="none"/><use xlink:href="#a" transform="matrix(1,0,0,1,-1107.9999254614813,-83.08391876226176) translate(113.83298828125 16.589501953125)"/><use xlink:href="#b" transform="matrix(1,0,0,1,-1103.9999254614813,-46.82917266851176) translate(0 26.580009765625)"/><use xlink:href="#c" transform="matrix(1,0,0,1,-1103.9999254614813,-46.82917266851176) translate(12.407871093750002 26.580009765625)"/><use xlink:href="#d" transform="matrix(1,0,0,1,-1103.9999254614813,-46.82917266851176) translate(81.697412109375 26.580009765625)"/><use xlink:href="#e" transform="matrix(1,0,0,1,-1103.9999254614813,-46.82917266851176) translate(91.22809570312499 26.580009765625)"/><use xlink:href="#b" transform="matrix(1,0,0,1,-1103.9999254614813,-46.82917266851176) translate(0 46.834755859375)"/><use xlink:href="#f" transform="matrix(1,0,0,1,-1103.9999254614813,-46.82917266851176) translate(12.407871093750002 46.834755859375)"/><use xlink:href="#g" transform="matrix(1,0,0,1,-1103.9999254614813,-46.82917266851176) translate(130.50333984374998 46.834755859375)"/><use xlink:href="#h" transform="matrix(1,0,0,1,-1103.9999254614813,-46.82917266851176) translate(0 67.089501953125)"/><use xlink:href="#i" transform="matrix(1,0,0,1,-1103.9999254614813,-46.82917266851176) translate(15.783662109375003 67.089501953125)"/><use xlink:href="#h" transform="matrix(1,0,0,1,-1103.9999254614813,-46.82917266851176) translate(0 87.344248046875)"/><use xlink:href="#j" transform="matrix(1,0,0,1,-1103.9999254614813,-46.82917266851176) translate(15.783662109375003 87.344248046875)"/><use xlink:href="#k" transform="matrix(1,0,0,1,-1103.9999254614813,-46.82917266851176) translate(0 107.59899414062501)"/><path d="M-1392.38-641a8 8 0 0 1 8-8h836.76a8 8 0 0 1 8 8v25.15a8 8 0 0 1-8 8h-836.75a8 8 0 0 1-8-8z" stroke="#000" stroke-opacity="0" stroke-width="2" fill="#fff" fill-opacity="0"/><use xlink:href="#l" transform="matrix(1,0,0,1,-1388.3746796955124,-645) translate(242.927861328125 28.429583333333333)"/><use xlink:href="#m" transform="matrix(1,0,0,1,-1388.3746796955124,-645) translate(362.6582975260417 28.429583333333333)"/><use xlink:href="#n" transform="matrix(1,0,0,1,-1388.3746796955124,-645) translate(422.791435546875 28.429583333333333)"/><use xlink:href="#o" transform="matrix(1,0,0,1,-1388.3746796955124,-645) translate(458.89513346354164 28.429583333333333)"/><use xlink:href="#p" transform="matrix(1,0,0,1,-1388.3746796955124,-645) translate(546.7371451822917 28.429583333333333)"/><path d="M-1115.9-609.2h309.37M-1115.87-609.2h-1.02M-806.56-609.2h1.03" stroke="#a9afb8" stroke-width="2" fill="none"/><path d="M-1392.38-599.85a8 8 0 0 1 8-8h837.7a8 8 0 0 1 8 8v2.85a8 8 0 0 1-8 8h-837.7a8 8 0 0 1-8-8z" stroke="#000" stroke-opacity="0" stroke-width="2" fill="#fff" fill-opacity="0"/><use xlink:href="#q" transform="matrix(1,0,0,1,-1388.374679695512,-603.8447760431012) translate(304.32308268229167 16.461006944444446)"/><use xlink:href="#r" transform="matrix(1,0,0,1,-1388.374679695512,-603.8447760431012) translate(357.89119032118055 16.461006944444446)"/><use xlink:href="#s" transform="matrix(1,0,0,1,-1388.374679695512,-603.8447760431012) translate(428.49801269531247 16.461006944444446)"/><use xlink:href="#t" transform="matrix(1,0,0,1,-1388.374679695512,-603.8447760431012) translate(441.23016276041665 16.461006944444446)"/><use xlink:href="#u" transform="matrix(1,0,0,1,-1388.374679695512,-603.8447760431012) translate(487.7271690538194 16.461006944444446)"/><use xlink:href="#v" transform="matrix(1,0,0,1,-1388.374679695512,-603.8447760431012) translate(513.3234445529513 16.461006944444446)"/><path d="M-660.2-342.58h300v272h-300z" stroke="#333" stroke-width="2" fill="#fff"/><path d="M-660.2-306.33h300" stroke="#333" stroke-width="2" fill="none"/><use xlink:href="#w" transform="matrix(1,0,0,1,-652.1878991475485,-334.58391876226176) translate(62.39100097656248 16.589501953125)"/><use xlink:href="#h" transform="matrix(1,0,0,1,-648.1878991475485,-298.3291726685118) translate(0 95.834755859375)"/><use xlink:href="#x" transform="matrix(1,0,0,1,-648.1878991475485,-298.3291726685118) translate(15.783662109375003 95.834755859375)"/><use xlink:href="#y" transform="matrix(1,0,0,1,-648.1878991475485,-298.3291726685118) translate(107.6656640625 95.834755859375)"/><use xlink:href="#h" transform="matrix(1,0,0,1,-648.1878991475485,-298.3291726685118) translate(0 116.089501953125)"/><use xlink:href="#z" transform="matrix(1,0,0,1,-648.1878991475485,-298.3291726685118) translate(15.783662109375003 116.089501953125)"/><use xlink:href="#h" transform="matrix(1,0,0,1,-648.1878991475485,-298.3291726685118) translate(0 136.344248046875)"/><use xlink:href="#A" transform="matrix(1,0,0,1,-648.1878991475485,-298.3291726685118) translate(15.783662109375003 136.344248046875)"/><path d="M-814 24.42h69.9a6 6 0 0 0 6-6v-217.84a6 6 0 0 1 6-6h52.4" stroke="#5e5e5e" stroke-width="2" fill="none"/><path d="M-813.97 25.4H-815v-1.96h1.03z" stroke="#5e5e5e" stroke-width=".05" fill="#5e5e5e"/><path d="M-664.42-205.42l-14.27 4.64v-9.27z" stroke="#5e5e5e" stroke-width="2" fill="#5e5e5e"/><path d="M-1570.86-342.58h300v272h-300z" stroke="#333" stroke-width="2" fill="#fff"/><path d="M-1570.86-306.33h300" stroke="#333" stroke-width="2" fill="none"/><use xlink:href="#B" transform="matrix(1,0,0,1,-1562.8545658141622,-334.58391876226176) translate(63.7642041015625 16.589501953125)"/><use xlink:href="#h" transform="matrix(1,0,0,1,-1558.8545658141622,-298.3291726685118) translate(0 75.580009765625)"/><use xlink:href="#C" transform="matrix(1,0,0,1,-1558.8545658141622,-298.3291726685118) translate(15.783662109375003 75.580009765625)"/><use xlink:href="#h" transform="matrix(1,0,0,1,-1558.8545658141622,-298.3291726685118) translate(0 95.834755859375)"/><use xlink:href="#D" transform="matrix(1,0,0,1,-1558.8545658141622,-298.3291726685118) translate(15.783662109375003 95.834755859375)"/><use xlink:href="#h" transform="matrix(1,0,0,1,-1558.8545658141622,-298.3291726685118) translate(0 116.08950195312501)"/><use xlink:href="#E" transform="matrix(1,0,0,1,-1558.8545658141622,-298.3291726685118) translate(15.783662109375003 116.08950195312501)"/><use xlink:href="#F" transform="matrix(1,0,0,1,-1558.8545658141622,-298.3291726685118) translate(0 136.344248046875)"/><use xlink:href="#G" transform="matrix(1,0,0,1,-1558.8545658141622,-298.3291726685118) translate(0 156.598994140625)"/><path d="M-1118 24.42h-69.43a6 6 0 0 1-6-6v-219a6 6 0 0 0-6-6h-51.92" stroke="#5e5e5e" stroke-width="2" fill="none"/><path d="M-1117 25.4h-1.03v-1.96h1.03z" stroke="#5e5e5e" stroke-width=".05" fill="#5e5e5e"/><path d="M-1266.62-206.58l14.27-4.64v9.27z" stroke="#5e5e5e" stroke-width="2" fill="#5e5e5e"/><path d="M-1116 243.12h300v231h-300z" stroke="#333" stroke-width="2" fill="#fff"/><path d="M-1116 279.38h300" stroke="#333" stroke-width="2" fill="none"/><g><use xlink:href="#H" transform="matrix(1,0,0,1,-1107.9999254614813,251.12412185649094) translate(53.788046875000006 16.589501953125)"/></g><g><use xlink:href="#h" transform="matrix(1,0,0,1,-1103.9999254614813,287.37886795024093) translate(0 75.33475585937501)"/><use xlink:href="#I" transform="matrix(1,0,0,1,-1103.9999254614813,287.37886795024093) translate(15.783662109375003 75.33475585937501)"/><use xlink:href="#J" transform="matrix(1,0,0,1,-1103.9999254614813,287.37886795024093) translate(170.73492187500003 75.33475585937501)"/><use xlink:href="#h" transform="matrix(1,0,0,1,-1103.9999254614813,287.37886795024093) translate(0 95.58950195312501)"/><use xlink:href="#K" transform="matrix(1,0,0,1,-1103.9999254614813,287.37886795024093) translate(15.783662109375003 95.58950195312501)"/><use xlink:href="#h" transform="matrix(1,0,0,1,-1103.9999254614813,287.37886795024093) translate(0 115.844248046875)"/><use xlink:href="#L" transform="matrix(1,0,0,1,-1103.9999254614813,287.37886795024093) translate(15.783662109375003 115.844248046875)"/></g><path d="M-966 141.92v81.7" stroke="#5e5e5e" stroke-width="2" fill="none"/><path d="M-965.02 141.94H-967v-1.02h1.96z" stroke="#5e5e5e" stroke-width=".05" fill="#5e5e5e"/><path d="M-966 238.9l-4.63-14.28h9.26z" stroke="#5e5e5e" stroke-width="2" fill="#5e5e5e"/><path d="M-660.2 69.92h300v231h-300z" stroke="#333" stroke-width="2" fill="#fff"/><path d="M-660.2 106.17h300" stroke="#333" stroke-width="2" fill="none"/><g><use xlink:href="#M" transform="matrix(1,0,0,1,-652.1878991475096,77.91608123766787) translate(124.8145263671875 16.589501953125)"/></g><g><use xlink:href="#h" transform="matrix(1,0,0,1,-648.1878991475096,114.17082733141787) translate(0 75.33475585937501)"/><use xlink:href="#N" transform="matrix(1,0,0,1,-648.1878991475096,114.17082733141787) translate(15.783662109375003 75.33475585937501)"/><use xlink:href="#J" transform="matrix(1,0,0,1,-648.1878991475096,114.17082733141787) translate(194.12024414062498 75.33475585937501)"/><use xlink:href="#h" transform="matrix(1,0,0,1,-648.1878991475096,114.17082733141787) translate(0 95.58950195312501)"/><use xlink:href="#O" transform="matrix(1,0,0,1,-648.1878991475096,114.17082733141787) translate(15.783662109375003 95.58950195312501)"/><use xlink:href="#h" transform="matrix(1,0,0,1,-648.1878991475096,114.17082733141787) translate(0 115.844248046875)"/><use xlink:href="#P" transform="matrix(1,0,0,1,-648.1878991475096,114.17082733141787) translate(15.783662109375003 115.844248046875)"/></g><path d="M-814 24.42h69.9a6 6 0 0 1 6 6v149a6 6 0 0 0 6 6h52.4" stroke="#5e5e5e" stroke-width="2" fill="none"/><path d="M-813.97 25.4H-815v-1.96h1.03z" stroke="#5e5e5e" stroke-width=".05" fill="#5e5e5e"/><path d="M-664.42 185.42l-14.27 4.63v-9.27z" stroke="#5e5e5e" stroke-width="2" fill="#5e5e5e"/><path d="M-1570.86 69.92h300v231h-300z" stroke="#333" stroke-width="2" fill="#fff"/><path d="M-1570.86 106.17h300" stroke="#333" stroke-width="2" fill="none"/><g><use xlink:href="#H" transform="matrix(1,0,0,1,-1562.8545658141375,77.91608123766787) translate(53.788046875000006 16.589501953125)"/></g><g><use xlink:href="#h" transform="matrix(1,0,0,1,-1558.8545658141375,114.17082733141787) translate(0 75.33475585937501)"/><use xlink:href="#I" transform="matrix(1,0,0,1,-1558.8545658141375,114.17082733141787) translate(15.783662109375003 75.33475585937501)"/><use xlink:href="#J" transform="matrix(1,0,0,1,-1558.8545658141375,114.17082733141787) translate(170.73492187500003 75.33475585937501)"/><use xlink:href="#h" transform="matrix(1,0,0,1,-1558.8545658141375,114.17082733141787) translate(0 95.58950195312501)"/><use xlink:href="#K" transform="matrix(1,0,0,1,-1558.8545658141375,114.17082733141787) translate(15.783662109375003 95.58950195312501)"/><use xlink:href="#h" transform="matrix(1,0,0,1,-1558.8545658141375,114.17082733141787) translate(0 115.844248046875)"/><use xlink:href="#L" transform="matrix(1,0,0,1,-1558.8545658141375,114.17082733141787) translate(15.783662109375003 115.844248046875)"/></g><path d="M-1118 24.42h-69.43a6 6 0 0 0-6 6v149a6 6 0 0 1-6 6h-51.92" stroke="#5e5e5e" stroke-width="2" fill="none"/><path d="M-1117 25.4h-1.03v-1.96h1.03z" stroke="#5e5e5e" stroke-width=".05" fill="#5e5e5e"/><path d="M-1266.62 185.42l14.27-4.64v9.27z" stroke="#5e5e5e" stroke-width="2" fill="#5e5e5e"/><path d="M-1115.52-445.3h300v251h-300z" stroke="#333" stroke-width="2" fill="#fff"/><path d="M-1115.52-409.04h300" stroke="#333" stroke-width="2" fill="none"/><g><use xlink:href="#Q" transform="matrix(1,0,0,1,-1107.5212324808554,-437.29195938101446) translate(54.164042968749996 16.589501953125)"/></g><g><use xlink:href="#h" transform="matrix(1,0,0,1,-1103.5212324808554,-401.0372132872645) translate(0 75.7073828125)"/><use xlink:href="#R" transform="matrix(1,0,0,1,-1103.5212324808554,-401.0372132872645) translate(15.783662109375003 75.7073828125)"/><use xlink:href="#S" transform="matrix(1,0,0,1,-1103.5212324808554,-401.0372132872645) translate(156.64324218750002 75.7073828125)"/><use xlink:href="#y" transform="matrix(1,0,0,1,-1103.5212324808554,-401.0372132872645) translate(0 95.96212890625)"/><use xlink:href="#h" transform="matrix(1,0,0,1,-1103.5212324808554,-401.0372132872645) translate(0 116.216875)"/><use xlink:href="#T" transform="matrix(1,0,0,1,-1103.5212324808554,-401.0372132872645) translate(15.783662109375003 116.216875)"/><use xlink:href="#b" transform="matrix(1,0,0,1,-1103.5212324808554,-401.0372132872645) translate(0 136.47162109375)"/><use xlink:href="#U" transform="matrix(1,0,0,1,-1103.5212324808554,-401.0372132872645) translate(12.407871093750002 136.47162109375)"/></g><path d="M-966-93.08v-81.7" stroke="#5e5e5e" stroke-width="2" fill="none"/><path d="M-965.02-92.08H-967v-1.03h1.96z" stroke="#5e5e5e" stroke-width=".05" fill="#5e5e5e"/><path d="M-966-190.06l4.64 14.27h-9.27z" stroke="#5e5e5e" stroke-width="2" fill="#5e5e5e"/><defs><path fill="#333" d="M440-1490V0H135v-1490h305" id="V"/><path fill="#333" d="M128 418v-1536h295v188h14c41-89 129-202 319-202 248 0 453 193 453 575 0 372-197 576-455 576-183 0-275-108-317-198h-9v597H128zm534-640c156 0 240-139 240-336 0-196-83-334-240-334-154 0-241 131-241 334 0 202 88 336 241 336" id="W"/><path fill="#333" d="M428-647V0H128v-1490h294v586c65-146 175-228 341-228 232 0 385 159 385 421V0H847v-659c0-139-76-222-202-222-128 0-217 86-217 234" id="X"/><path fill="#333" d="M628 22C291 22 81-210 81-554c0-346 210-578 547-578 336 0 547 232 547 578 0 344-211 576-547 576zm0-236c160 0 242-146 242-341 0-197-82-341-242-341S387-753 387-555c0 195 81 341 241 341" id="Y"/><path fill="#333" d="M428-647V0H128v-1118h283l4 231c63-156 176-245 348-245 232 0 384 159 384 421V0H847v-659c0-139-76-222-202-222-128 0-217 86-217 234" id="Z"/><path fill="#333" d="M633 22C291 22 81-200 81-553c0-345 210-579 537-579 292 0 525 185 525 567v84H378c7 183 109 277 260 277 105 0 184-46 216-132l272 51C1071-99 893 22 633 22zM380-669h474c-15-146-94-237-233-237-143 0-229 99-241 237" id="aa"/><g id="a"><use transform="matrix(0.008173828125000001,0,0,0.008173828125000001,0,0)" xlink:href="#V"/><use transform="matrix(0.008173828125000001,0,0,0.008173828125000001,4.699951171875001,0)" xlink:href="#W"/><use transform="matrix(0.008173828125000001,0,0,0.008173828125000001,15.252363281250002,0)" xlink:href="#X"/><use transform="matrix(0.008173828125000001,0,0,0.008173828125000001,25.673994140625005,0)" xlink:href="#Y"/><use transform="matrix(0.008173828125000001,0,0,0.008173828125000001,35.94032226562501,0)" xlink:href="#Z"/><use transform="matrix(0.008173828125000001,0,0,0.008173828125000001,46.36195312500001,0)" xlink:href="#aa"/></g><path fill="#333" d="M798-719v166H144v-166h654" id="ab"/><use transform="matrix(0.008173828125000001,0,0,0.008173828125000001,0,0)" xlink:href="#ab" id="b"/><path fill="#333" d="M158 418v-1536h174v179h20c37-59 106-193 324-193 279 0 474 222 474 576 0 356-194 580-473 580-213 0-288-135-325-197h-14v591H158zm492-555c209 0 317-186 317-421 0-232-105-413-317-413-206 0-314 166-314 413 0 249 111 421 314 421" id="ac"/><path fill="#333" d="M338-670V0H158v-1490h180v566c73-149 190-208 336-208 226 0 379 139 379 422V0H872v-695c0-172-96-275-252-275-161 0-282 109-282 300" id="ad"/><path fill="#333" d="M613 24c-304 0-509-231-509-576 0-350 205-580 509-580 305 0 511 230 511 580 0 345-206 576-511 576zm0-161c226 0 329-195 329-415 0-222-103-419-329-419-223 0-326 196-326 419 0 220 103 415 326 415" id="ae"/><path fill="#333" d="M338-670V0H158v-1118h173l1 207c72-158 192-221 342-221 226 0 378 139 378 422V0H872v-695c0-172-96-275-252-275-161 0-282 109-282 300" id="af"/><path fill="#333" d="M628 24c-324 0-524-230-524-574 0-343 198-582 503-582 237 0 487 146 487 559v75H286c9 234 145 362 343 362 132 0 231-58 273-172l174 48C1024-91 857 24 628 24zM287-650h624c-17-190-120-322-304-322-192 0-309 151-320 322" id="ag"/><path fill="#333" d="M370-1490V0H180v-1490h190" id="ah"/><path fill="#333" d="M577 24c-279 0-473-224-473-580 0-354 195-576 474-576 218 0 287 134 324 193h14v-551h180V0H922v-173h-20C865-111 790 24 577 24zm27-161c203 0 314-172 314-421 0-247-108-413-314-413-212 0-317 181-317 413 0 235 108 421 317 421" id="ai"/><g id="c"><use transform="matrix(0.008173828125000001,0,0,0.008173828125000001,0,0)" xlink:href="#ac"/><use transform="matrix(0.008173828125000001,0,0,0.008173828125000001,10.249980468750001,0)" xlink:href="#ad"/><use transform="matrix(0.008173828125000001,0,0,0.008173828125000001,20.148486328125003,0)" xlink:href="#ae"/><use transform="matrix(0.008173828125000001,0,0,0.008173828125000001,30.185947265625003,0)" xlink:href="#af"/><use transform="matrix(0.008173828125000001,0,0,0.008173828125000001,40.076279296875,0)" xlink:href="#ag"/><use transform="matrix(0.008173828125000001,0,0,0.008173828125000001,49.835830078125,0)" xlink:href="#ah"/><use transform="matrix(0.008173828125000001,0,0,0.008173828125000001,54.331435546875,0)" xlink:href="#ai"/></g><path fill="#333" d="M295 13c-75 0-135-60-135-135s60-135 135-135 135 60 135 135S370 13 295 13zm0-809c-75 0-135-60-135-135s60-135 135-135 135 60 135 135-60 135-135 135" id="aj"/><use transform="matrix(0.008173828125000001,0,0,0.008173828125000001,0,0)" xlink:href="#aj" id="d"/><path fill="#333" d="M538 24C308 24 148-78 108-271l171-41c32 123 123 178 257 178 156 0 256-77 256-169 0-77-54-128-164-154l-186-44c-203-48-300-148-300-305 0-192 176-326 414-326 230 0 351 112 402 269l-163 42c-31-80-94-158-238-158-133 0-233 69-233 162 0 83 57 129 188 160l169 40c203 48 298 149 298 302 0 196-179 339-441 339" id="ak"/><path fill="#333" d="M598-1118v154H368v674c0 100 37 144 132 144 23 0 62-6 92-12L629-6c-37 13-88 20-134 20-193 0-307-107-307-290v-688H20v-154h168v-266h180v266h230" id="al"/><path fill="#333" d="M158 0v-1118h174v172h12c41-113 157-188 290-188 26 0 70 2 91 3v181c-11-2-60-10-108-10-161 0-279 109-279 260V0H158" id="am"/><path fill="#333" d="M158 0v-1118h180V0H158zm91-1301c-68 0-125-53-125-119s57-119 125-119c69 0 126 53 126 119s-57 119-126 119" id="an"/><path fill="#333" d="M611 442c-248 0-391-105-460-228l146-94c47 65 117 165 314 165 178 0 307-82 307-266v-224h-17C863-141 792-18 576-18c-268 0-472-195-472-546 0-346 197-568 476-568 216 0 288 133 326 193h17v-179h175V29c0 289-215 413-487 413zm-5-620c203 0 314-146 314-390 0-237-108-403-314-403-213 0-319 180-319 403 0 230 109 390 319 390" id="ao"/><g id="e"><use transform="matrix(0.008173828125000001,0,0,0.008173828125000001,0,0)" xlink:href="#ak"/><use transform="matrix(0.008173828125000001,0,0,0.008173828125000001,8.835908203125001,0)" xlink:href="#al"/><use transform="matrix(0.008173828125000001,0,0,0.008173828125000001,14.312373046875003,0)" xlink:href="#am"/><use transform="matrix(0.008173828125000001,0,0,0.008173828125000001,20.875957031250003,0)" xlink:href="#an"/><use transform="matrix(0.008173828125000001,0,0,0.008173828125000001,24.930175781250004,0)" xlink:href="#af"/><use transform="matrix(0.008173828125000001,0,0,0.008173828125000001,34.820507812500004,0)" xlink:href="#ao"/></g><path fill="#333" d="M600 0L52-1490h200c166 485 304 806 458 1336 156-533 285-846 449-1336h202L819 0H600" id="ap"/><g id="f"><use transform="matrix(0.008173828125000001,0,0,0.008173828125000001,0,0)" xlink:href="#ac"/><use transform="matrix(0.008173828125000001,0,0,0.008173828125000001,10.249980468750001,0)" xlink:href="#ad"/><use transform="matrix(0.008173828125000001,0,0,0.008173828125000001,20.148486328125003,0)" xlink:href="#ae"/><use transform="matrix(0.008173828125000001,0,0,0.008173828125000001,30.185947265625003,0)" xlink:href="#af"/><use transform="matrix(0.008173828125000001,0,0,0.008173828125000001,40.076279296875,0)" xlink:href="#ag"/><use transform="matrix(0.008173828125000001,0,0,0.008173828125000001,48.985751953124996,0)" xlink:href="#ap"/><use transform="matrix(0.008173828125000001,0,0,0.008173828125000001,59.68529296874999,0)" xlink:href="#ag"/><use transform="matrix(0.008173828125000001,0,0,0.008173828125000001,69.44484374999999,0)" xlink:href="#am"/><use transform="matrix(0.008173828125000001,0,0,0.008173828125000001,75.746865234375,0)" xlink:href="#ak"/><use transform="matrix(0.008173828125000001,0,0,0.008173828125000001,84.5827734375,0)" xlink:href="#an"/><use transform="matrix(0.008173828125000001,0,0,0.008173828125000001,88.6369921875,0)" xlink:href="#ae"/><use transform="matrix(0.008173828125000001,0,0,0.008173828125000001,98.674453125,0)" xlink:href="#af"/><use transform="matrix(0.008173828125000001,0,0,0.008173828125000001,108.56478515625,0)" xlink:href="#aj"/></g><g id="g"><use transform="matrix(0.008173828125000001,0,0,0.008173828125000001,0,0)" xlink:href="#ak"/><use transform="matrix(0.008173828125000001,0,0,0.008173828125000001,8.835908203125001,0)" xlink:href="#al"/><use transform="matrix(0.008173828125000001,0,0,0.008173828125000001,14.312373046875003,0)" xlink:href="#am"/><use transform="matrix(0.008173828125000001,0,0,0.008173828125000001,20.875957031250003,0)" xlink:href="#an"/><use transform="matrix(0.008173828125000001,0,0,0.008173828125000001,24.930175781250004,0)" xlink:href="#af"/><use transform="matrix(0.008173828125000001,0,0,0.008173828125000001,34.820507812500004,0)" xlink:href="#ao"/></g><path fill="#333" d="M593-100v-404H195v-159h398v-403h169v403h398v159H762v404H593" id="aq"/><use transform="matrix(0.008173828125000001,0,0,0.008173828125000001,0,0)" xlink:href="#aq" id="h"/><path fill="#333" d="M158 0v-1118h175l1 205c55-151 181-225 313-225 147 0 245 90 285 228 53-141 190-228 352-228 194 0 352 125 352 384V0h-181v-749c0-161-105-225-225-225-151 0-243 103-243 244V0H807v-767c0-124-93-207-219-207-131 0-250 92-250 270V0H158" id="ar"/><g id="i"><use transform="matrix(0.008173828125000001,0,0,0.008173828125000001,0,0)" xlink:href="#al"/><use transform="matrix(0.008173828125000001,0,0,0.008173828125000001,5.4764648437500005,0)" xlink:href="#ad"/><use transform="matrix(0.008173828125000001,0,0,0.008173828125000001,15.374970703125001,0)" xlink:href="#ag"/><use transform="matrix(0.008173828125000001,0,0,0.008173828125000001,25.134521484375,0)" xlink:href="#ar"/><use transform="matrix(0.008173828125000001,0,0,0.008173828125000001,39.798369140625,0)" xlink:href="#ag"/></g><path fill="#333" d="M677 24c-213 0-288-135-325-197h-20V0H158v-1490h180v551h14c37-59 106-193 324-193 279 0 474 222 474 576 0 356-194 580-473 580zm-27-161c209 0 317-186 317-421 0-232-105-413-317-413-206 0-314 166-314 413 0 249 111 421 314 421" id="as"/><path fill="#333" d="M471 26C259 26 90-98 90-318c0-256 228-303 435-329 202-27 287-16 287-108 0-139-79-219-234-219-161 0-248 86-283 164l-173-57c86-203 278-265 451-265 150 0 419 46 419 395V0H815v-152h-12C765-73 660 26 471 26zm31-159c199 0 310-134 310-271v-155c-30 35-226 55-295 64-131 17-246 59-246 186 0 116 97 176 231 176" id="at"/><path fill="#333" d="M140 405l46-156c120 36 205 19 263-150l32-93L54-1118h197c107 313 237 620 324 950 87-331 219-637 326-950h196L606 167c-68 178-176 259-334 259-64 0-113-12-132-21" id="au"/><g id="j"><use transform="matrix(0.008173828125000001,0,0,0.008173828125000001,0,0)" xlink:href="#as"/><use transform="matrix(0.008173828125000001,0,0,0.008173828125000001,10.413457031250001,0)" xlink:href="#at"/><use transform="matrix(0.008173828125000001,0,0,0.008173828125000001,19.813359375000005,0)" xlink:href="#al"/><use transform="matrix(0.008173828125000001,0,0,0.008173828125000001,24.881132812500006,0)" xlink:href="#al"/><use transform="matrix(0.008173828125000001,0,0,0.008173828125000001,30.194121093750006,0)" xlink:href="#ag"/><use transform="matrix(0.008173828125000001,0,0,0.008173828125000001,39.953671875000005,0)" xlink:href="#am"/><use transform="matrix(0.008173828125000001,0,0,0.008173828125000001,46.517255859375,0)" xlink:href="#au"/></g><path fill="#333" d="M338-1490V0H158v-1490h180" id="av"/><path fill="#333" d="M537 14c-226 0-379-139-379-422v-710h180v695c0 172 97 275 253 275 160 0 281-109 281-300v-670h181V0H879v-209C806-46 684 14 537 14" id="aw"/><g id="k"><use transform="matrix(0.008173828125000001,0,0,0.008173828125000001,0,0)" xlink:href="#aq"/><use transform="matrix(0.008173828125000001,0,0,0.008173828125000001,11.075537109375002,0)" xlink:href="#an"/><use transform="matrix(0.008173828125000001,0,0,0.008173828125000001,15.129755859375003,0)" xlink:href="#av"/><use transform="matrix(0.008173828125000001,0,0,0.008173828125000001,19.183974609375003,0)" xlink:href="#av"/><use transform="matrix(0.008173828125000001,0,0,0.008173828125000001,23.238193359375003,0)" xlink:href="#aw"/><use transform="matrix(0.008173828125000001,0,0,0.008173828125000001,33.13669921875,0)" xlink:href="#ar"/><use transform="matrix(0.008173828125000001,0,0,0.008173828125000001,47.80054687500001,0)" xlink:href="#an"/><use transform="matrix(0.008173828125000001,0,0,0.008173828125000001,51.85476562500001,0)" xlink:href="#af"/><use transform="matrix(0.008173828125000001,0,0,0.008173828125000001,61.74509765625001,0)" xlink:href="#at"/><use transform="matrix(0.008173828125000001,0,0,0.008173828125000001,71.14500000000001,0)" xlink:href="#al"/><use transform="matrix(0.008173828125000001,0,0,0.008173828125000001,76.62146484375,0)" xlink:href="#an"/><use transform="matrix(0.008173828125000001,0,0,0.008173828125000001,80.67568359375001,0)" xlink:href="#ae"/><use transform="matrix(0.008173828125000001,0,0,0.008173828125000001,90.71314453125001,0)" xlink:href="#af"/></g><path fill="#a9afb8" d="M659 0H135v-1490h529c448 0 721 280 721 744 0 466-273 746-726 746zM440-263h204c287 0 437-148 437-483 0-333-150-481-435-481H440v964" id="ax"/><path fill="#a9afb8" d="M128 0v-1118h300V0H128zm150-1264c-91 0-165-68-165-154 0-85 74-154 165-154 90 0 165 69 165 154 0 86-75 154-165 154" id="ay"/><path fill="#a9afb8" d="M440 22C227 22 68-92 68-313c0-250 202-322 422-343 195-21 271-24 271-105 0-95-63-149-175-149-116 0-187 57-211 129l-275-46c57-194 237-305 487-305 240 0 474 108 474 379V0H777v-155h-10C713-51 605 22 440 22zm85-211c140 0 238-93 238-211v-121c-37 26-156 42-222 51-111 16-185 59-185 149 0 87 70 132 169 132" id="az"/><path fill="#a9afb8" d="M625 442c-280 0-454-114-503-274l258-72c28 63 97 128 243 128 153 0 246-69 246-216v-206h-23C805-108 717-16 536-16 284-16 81-191 81-561c0-378 208-571 456-571 188 0 280 113 321 202h13v-188h295V-9c0 303-226 451-541 451zm5-686c153 0 240-119 240-319 0-198-86-329-240-329-158 0-241 137-241 329 0 195 85 319 241 319" id="aA"/><path fill="#a9afb8" d="M128 0v-1118h290v195h12c54-169 184-238 367-200v268c-27-8-86-15-130-15-138 0-239 95-239 234V0H128" id="aB"/><path fill="#a9afb8" d="M128 0v-1118h278l12 217c60-163 185-234 319-234 143 0 236 81 288 251 63-172 205-251 359-251 205 0 357 138 357 381V0h-301v-697c0-126-76-187-177-187-114 0-184 79-184 196V0H789v-705c0-109-72-179-174-179-106 0-187 74-187 208V0H128" id="aC"/><g id="l"><use transform="matrix(0.011907552083333333,0,0,0.011907552083333333,0,0)" xlink:href="#ax"/><use transform="matrix(0.011907552083333333,0,0,0.011907552083333333,17.61126953125,0)" xlink:href="#ay"/><use transform="matrix(0.011907552083333333,0,0,0.011907552083333333,24.219960937499998,0)" xlink:href="#az"/><use transform="matrix(0.011907552083333333,0,0,0.011907552083333333,38.37804036458333,0)" xlink:href="#aA"/><use transform="matrix(0.011907552083333333,0,0,0.011907552083333333,53.78641276041665,0)" xlink:href="#aB"/><use transform="matrix(0.011907552083333333,0,0,0.011907552083333333,63.38389973958332,0)" xlink:href="#az"/><use transform="matrix(0.011907552083333333,0,0,0.011907552083333333,77.54197916666666,0)" xlink:href="#aC"/><use transform="matrix(0.011907552083333333,0,0,0.011907552083333333,99.79719401041666,0)" xlink:href="#az"/></g><path fill="#a9afb8" d="M750 21c-371 0-615-218-615-544v-967h305v942c0 174 123 299 310 299s309-125 309-299v-942h306v967c0 326-247 544-615 544" id="aD"/><path fill="#a9afb8" d="M135 0v-1490h468l242 684c30 94 76 293 111 455 34-161 80-360 110-455l238-684h470V0h-307c0-447-3-765 11-1227-122 503-246 788-395 1227H826C676-435 552-717 427-1215c15 453 11 775 11 1215H135" id="aE"/><path fill="#a9afb8" d="M135 0v-1490h305v1237h643V0H135" id="aF"/><g id="m"><use transform="matrix(0.011907552083333333,0,0,0.011907552083333333,0,0)" xlink:href="#aD"/><use transform="matrix(0.011907552083333333,0,0,0.011907552083333333,17.849420572916667,0)" xlink:href="#aE"/><use transform="matrix(0.011907552083333333,0,0,0.011907552083333333,40.56902994791667,0)" xlink:href="#aF"/></g><path fill="#a9afb8" d="M537 19C279 19 81-185 81-557c0-382 206-575 454-575 190 0 278 113 318 202h10v-560h300V0H868v-179h-15C812-89 719 19 537 19zm92-241c153 0 240-134 240-336 0-203-86-334-240-334-158 0-240 138-240 334 0 197 84 336 240 336" id="aG"/><path fill="#a9afb8" d="M628 22C291 22 81-210 81-554c0-346 210-578 547-578 336 0 547 232 547 578 0 344-211 576-547 576zm0-236c160 0 242-146 242-341 0-197-82-341-242-341S387-753 387-555c0 195 81 341 241 341" id="aH"/><g id="n"><use transform="matrix(0.011907552083333333,0,0,0.011907552083333333,0,0)" xlink:href="#aG"/><use transform="matrix(0.011907552083333333,0,0,0.011907552083333333,15.372649739583334,0)" xlink:href="#aH"/></g><path fill="#a9afb8" d="M440-1490V0H135v-1490h305" id="aI"/><path fill="#a9afb8" d="M128 418v-1536h295v188h14c41-89 129-202 319-202 248 0 453 193 453 575 0 372-197 576-455 576-183 0-275-108-317-198h-9v597H128zm534-640c156 0 240-139 240-336 0-196-83-334-240-334-154 0-241 131-241 334 0 202 88 336 241 336" id="aJ"/><path fill="#a9afb8" d="M428-647V0H128v-1490h294v586c65-146 175-228 341-228 232 0 385 159 385 421V0H847v-659c0-139-76-222-202-222-128 0-217 86-217 234" id="aK"/><path fill="#a9afb8" d="M428-647V0H128v-1118h283l4 231c63-156 176-245 348-245 232 0 384 159 384 421V0H847v-659c0-139-76-222-202-222-128 0-217 86-217 234" id="aL"/><path fill="#a9afb8" d="M633 22C291 22 81-200 81-553c0-345 210-579 537-579 292 0 525 185 525 567v84H378c7 183 109 277 260 277 105 0 184-46 216-132l272 51C1071-99 893 22 633 22zM380-669h474c-15-146-94-237-233-237-143 0-229 99-241 237" id="aM"/><g id="o"><use transform="matrix(0.011907552083333333,0,0,0.011907552083333333,0,0)" xlink:href="#aI"/><use transform="matrix(0.011907552083333333,0,0,0.011907552083333333,6.846842447916667,0)" xlink:href="#aJ"/><use transform="matrix(0.011907552083333333,0,0,0.011907552083333333,22.219492187500002,0)" xlink:href="#aK"/><use transform="matrix(0.011907552083333333,0,0,0.011907552083333333,37.40162109375,0)" xlink:href="#aH"/><use transform="matrix(0.011907552083333333,0,0,0.011907552083333333,52.35750651041667,0)" xlink:href="#aL"/><use transform="matrix(0.011907552083333333,0,0,0.011907552083333333,67.53963541666667,0)" xlink:href="#aM"/></g><path fill="#a9afb8" d="M124 0v-220l528-495c135-132 210-216 210-336 0-133-98-215-231-215-139 0-229 88-229 233H110c0-290 214-477 523-477 315 0 525 182 525 440 0 167-80 305-385 586L548-262v11h630V0H124" id="aN"/><path fill="#a9afb8" d="M690 20C314 20 94-261 94-744c0-482 221-766 596-766 376 0 597 284 597 766 0 483-219 764-597 764zm0-253c184 0 286-184 286-511 0-328-102-514-286-514-183 0-285 187-285 514s101 511 285 511" id="aO"/><path fill="#a9afb8" d="M177 0l620-1228v-10H75v-252h1041v256L494 0H177" id="aP"/><g id="p"><use transform="matrix(0.011907552083333333,0,0,0.011907552083333333,0,0)" xlink:href="#aN"/><use transform="matrix(0.011907552083333333,0,0,0.011907552083333333,15.3607421875,0)" xlink:href="#aO"/><use transform="matrix(0.011907552083333333,0,0,0.011907552083333333,31.805071614583333,0)" xlink:href="#aO"/><use transform="matrix(0.011907552083333333,0,0,0.011907552083333333,47.773098958333335,0)" xlink:href="#aP"/></g><path fill="#a9afb8" d="M180 0v-1490h270l367 940c28 72 75 218 110 339 35-117 81-264 110-339l362-940h271V0h-187c2-448-5-837 7-1287-157 497-311 829-483 1287H842C666-458 514-784 354-1284c12 438 5 843 7 1284H180" id="aQ"/><path fill="#a9afb8" d="M471 26C259 26 90-98 90-318c0-256 228-303 435-329 202-27 287-16 287-108 0-139-79-219-234-219-161 0-248 86-283 164l-173-57c86-203 278-265 451-265 150 0 419 46 419 395V0H815v-152h-12C765-73 660 26 471 26zm31-159c199 0 310-134 310-271v-155c-30 35-226 55-295 64-131 17-246 59-246 186 0 116 97 176 231 176" id="aR"/><path fill="#a9afb8" d="M598-1118v154H368v674c0 100 37 144 132 144 23 0 62-6 92-12L629-6c-37 13-88 20-134 20-193 0-307-107-307-290v-688H20v-154h168v-266h180v266h230" id="aS"/><path fill="#a9afb8" d="M628 24c-324 0-524-230-524-574 0-343 198-582 503-582 237 0 487 146 487 559v75H286c9 234 145 362 343 362 132 0 231-58 273-172l174 48C1024-91 857 24 628 24zM287-650h624c-17-190-120-322-304-322-192 0-309 151-320 322" id="aT"/><path fill="#a9afb8" d="M537 14c-226 0-379-139-379-422v-710h180v695c0 172 97 275 253 275 160 0 281-109 281-300v-670h181V0H879v-209C806-46 684 14 537 14" id="aU"/><path fill="#a9afb8" d="M538 24C308 24 148-78 108-271l171-41c32 123 123 178 257 178 156 0 256-77 256-169 0-77-54-128-164-154l-186-44c-203-48-300-148-300-305 0-192 176-326 414-326 230 0 351 112 402 269l-163 42c-31-80-94-158-238-158-133 0-233 69-233 162 0 83 57 129 188 160l169 40c203 48 298 149 298 302 0 196-179 339-441 339" id="aV"/><g id="q"><use transform="matrix(0.006946072048611111,0,0,0.006946072048611111,0,0)" xlink:href="#aQ"/><use transform="matrix(0.006946072048611111,0,0,0.006946072048611111,12.850233289930555,0)" xlink:href="#aR"/><use transform="matrix(0.006946072048611111,0,0,0.006946072048611111,20.838216145833332,0)" xlink:href="#aS"/><use transform="matrix(0.006946072048611111,0,0,0.006946072048611111,25.353162977430554,0)" xlink:href="#aT"/><use transform="matrix(0.006946072048611111,0,0,0.006946072048611111,33.64677300347222,0)" xlink:href="#aU"/><use transform="matrix(0.006946072048611111,0,0,0.006946072048611111,42.058466254340274,0)" xlink:href="#aV"/></g><path fill="#a9afb8" d="M613 24c-304 0-509-231-509-576 0-350 205-580 509-580 216 0 392 114 453 309l-173 49c-33-115-133-197-280-197-223 0-326 196-326 419 0 220 103 415 326 415 150 0 252-85 285-206l172 49C1010-95 832 24 613 24" id="aW"/><path fill="#a9afb8" d="M338-670V0H158v-1490h180v566c73-149 190-208 336-208 226 0 379 139 379 422V0H872v-695c0-172-96-275-252-275-161 0-282 109-282 300" id="aX"/><path fill="#a9afb8" d="M577 24c-279 0-473-224-473-580 0-354 195-576 474-576 218 0 287 134 324 193h14v-551h180V0H922v-173h-20C865-111 790 24 577 24zm27-161c203 0 314-172 314-421 0-247-108-413-314-413-212 0-317 181-317 413 0 235 108 421 317 421" id="aY"/><path fill="#a9afb8" d="M613 24c-304 0-509-231-509-576 0-350 205-580 509-580 305 0 511 230 511 580 0 345-206 576-511 576zm0-161c226 0 329-195 329-415 0-222-103-419-329-419-223 0-326 196-326 419 0 220 103 415 326 415" id="aZ"/><g id="r"><use transform="matrix(0.006946072048611111,0,0,0.006946072048611111,0,0)" xlink:href="#aQ"/><use transform="matrix(0.006946072048611111,0,0,0.006946072048611111,12.850233289930555,0)" xlink:href="#aR"/><use transform="matrix(0.006946072048611111,0,0,0.006946072048611111,20.838216145833332,0)" xlink:href="#aW"/><use transform="matrix(0.006946072048611111,0,0,0.006946072048611111,28.965120442708333,0)" xlink:href="#aX"/><use transform="matrix(0.006946072048611111,0,0,0.006946072048611111,37.37681369357639,0)" xlink:href="#aR"/><use transform="matrix(0.006946072048611111,0,0,0.006946072048611111,45.364796549479166,0)" xlink:href="#aY"/><use transform="matrix(0.006946072048611111,0,0,0.006946072048611111,54.0751708984375,0)" xlink:href="#aZ"/></g><path fill="#a9afb8" d="M419-1970V480H262v-2450h157" id="ba"/><use transform="matrix(0.006946072048611111,0,0,0.006946072048611111,0,0)" xlink:href="#ba" id="s"/><path fill="#a9afb8" d="M158 0v-1118h174v172h12c41-113 157-188 290-188 26 0 70 2 91 3v181c-11-2-60-10-108-10-161 0-279 109-279 260V0H158" id="bb"/><g id="t"><use transform="matrix(0.006946072048611111,0,0,0.006946072048611111,0,0)" xlink:href="#aQ"/><use transform="matrix(0.006946072048611111,0,0,0.006946072048611111,12.850233289930555,0)" xlink:href="#aR"/><use transform="matrix(0.006946072048611111,0,0,0.006946072048611111,20.838216145833332,0)" xlink:href="#bb"/><use transform="matrix(0.006946072048611111,0,0,0.006946072048611111,25.957471245659722,0)" xlink:href="#aW"/><use transform="matrix(0.006946072048611111,0,0,0.006946072048611111,34.08437554253472,0)" xlink:href="#aX"/></g><path fill="#a9afb8" d="M154 0v-137l495-537c165-179 249-281 249-418 0-156-121-253-280-253-170 0-278 110-278 278H158c0-264 200-443 465-443 266 0 455 183 455 416 0 161-73 288-336 568L416-179v12h687V0H154" id="bc"/><path fill="#a9afb8" d="M646 20c-249 0-524-159-524-708 0-524 209-822 547-822 250 0 431 161 467 395H950c-33-129-126-227-281-227-229 0-367 208-367 566h12c80-124 212-198 367-198 255 0 467 205 467 493 0 278-198 501-502 501zm0-167c179 0 318-148 318-334 0-182-133-328-313-328-181 0-322 156-322 330 0 176 134 332 317 332" id="bd"/><path fill="#a9afb8" d="M128 359l88-567h206L266 359H128" id="be"/><g id="u"><use transform="matrix(0.006946072048611111,0,0,0.006946072048611111,0,0)" xlink:href="#bc"/><use transform="matrix(0.006946072048611111,0,0,0.006946072048611111,8.675643988715278,0)" xlink:href="#bd"/><use transform="matrix(0.006946072048611111,0,0,0.006946072048611111,17.49715549045139,0)" xlink:href="#be"/></g><path fill="#a9afb8" d="M646 20c-332 0-524-278-524-764 0-483 194-766 524-766s524 283 524 766c0 485-191 764-524 764zm0-166c218 0 341-220 341-598 0-380-123-601-341-601s-341 222-341 601c0 378 123 598 341 598" id="bf"/><path fill="#a9afb8" d="M626 20c-262 0-458-168-468-396h184c12 133 134 229 284 229 180 0 311-137 311-326 0-192-136-335-323-335-92 0-196 33-255 78l-178-22 88-738h784v167H429l-51 435h8c61-51 160-87 263-87 273 0 474 211 474 499 0 286-210 496-497 496" id="bg"/><g id="v"><use transform="matrix(0.006946072048611111,0,0,0.006946072048611111,0,0)" xlink:href="#bc"/><use transform="matrix(0.006946072048611111,0,0,0.006946072048611111,8.675643988715278,0)" xlink:href="#bf"/><use transform="matrix(0.006946072048611111,0,0,0.006946072048611111,17.649969075520833,0)" xlink:href="#bc"/><use transform="matrix(0.006946072048611111,0,0,0.006946072048611111,26.32561306423611,0)" xlink:href="#bg"/></g><path fill="#333" d="M49 0l509-1490h400L1480 0h-339l-115-346H497L386 0H49zm524-585h374c-75-213-124-402-192-666-66 268-110 453-182 666" id="bh"/><path fill="#333" d="M440 22C227 22 68-92 68-313c0-250 202-322 422-343 195-21 271-24 271-105 0-95-63-149-175-149-116 0-187 57-211 129l-275-46c57-194 237-305 487-305 240 0 474 108 474 379V0H777v-155h-10C713-51 605 22 440 22zm85-211c140 0 238-93 238-211v-121c-37 26-156 42-222 51-111 16-185 59-185 149 0 87 70 132 169 132" id="bi"/><path fill="#333" d="M128 0v-1118h290v195h12c54-169 184-238 367-200v268c-27-8-86-15-130-15-138 0-239 95-239 234V0H128" id="bj"/><path fill="#333" d="M428-1490V0H128v-1490h300" id="bk"/><path fill="#333" d="M75-1237v-253h1217v253H837V0H531v-1237H75" id="bl"/><path fill="#333" d="M750-1118v229H516V0H217v-889H20v-229h197v-86c0-238 156-356 363-356 94 0 178 20 215 31l-54 226c-25-7-61-15-100-15-123-3-131 84-125 200h234" id="bm"/><path fill="#333" d="M628 22C291 22 81-210 81-554c0-346 210-578 547-578 336 0 547 232 547 578 0 344-211 576-547 576zm0-236c160 0 242-146 242-341 0-197-82-341-242-341S387-753 387-555c0 195 81 341 241 341zM485-1268H224v-7l288-296h230l289 296v7H770l-142-170" id="bn"/><path fill="#333" d="M128 0v-1118h300V0H128zm150-1264c-91 0-165-68-165-154 0-85 74-154 165-154 90 0 165 69 165 154 0 86-75 154-165 154" id="bo"/><path fill="#333" d="M628 22C291 22 81-210 81-554c0-346 210-578 547-578 265 0 455 142 497 372l-279 52c-25-116-99-188-215-188-160 0-244 139-244 341 0 200 84 341 244 341 116 0 193-74 217-195l279 51C1085-123 896 22 628 22" id="bp"/><g id="w"><use transform="matrix(0.008173828125000001,0,0,0.008173828125000001,0,0)" xlink:href="#bh"/><use transform="matrix(0.008173828125000001,0,0,0.008173828125000001,12.497783203125001,0)" xlink:href="#W"/><use transform="matrix(0.008173828125000001,0,0,0.008173828125000001,23.213671875000003,0)" xlink:href="#bi"/><use transform="matrix(0.008173828125000001,0,0,0.008173828125000001,32.932353515625,0)" xlink:href="#bj"/><use transform="matrix(0.008173828125000001,0,0,0.008173828125000001,39.340634765625005,0)" xlink:href="#aa"/><use transform="matrix(0.008173828125000001,0,0,0.008173828125000001,49.312705078125006,0)" xlink:href="#bk"/><use transform="matrix(0.008173828125000001,0,0,0.008173828125000001,53.849179687500005,0)" xlink:href="#X"/><use transform="matrix(0.008173828125000001,0,0,0.008173828125000001,64.27081054687501,0)" xlink:href="#Y"/><use transform="matrix(0.008173828125000001,0,0,0.008173828125000001,73.229326171875,0)" xlink:href="#bl"/><use transform="matrix(0.008173828125000001,0,0,0.008173828125000001,83.09513671875001,0)" xlink:href="#aa"/><use transform="matrix(0.008173828125000001,0,0,0.008173828125000001,93.06720703125,0)" xlink:href="#bk"/><use transform="matrix(0.008173828125000001,0,0,0.008173828125000001,97.60368164062501,0)" xlink:href="#aa"/><use transform="matrix(0.008173828125000001,0,0,0.008173828125000001,107.575751953125,0)" xlink:href="#bm"/><use transform="matrix(0.008173828125000001,0,0,0.008173828125000001,113.87777343750001,0)" xlink:href="#bn"/><use transform="matrix(0.008173828125000001,0,0,0.008173828125000001,124.14410156250001,0)" xlink:href="#Z"/><use transform="matrix(0.008173828125000001,0,0,0.008173828125000001,134.56573242187503,0)" xlink:href="#bo"/><use transform="matrix(0.008173828125000001,0,0,0.008173828125000001,139.10220703125006,0)" xlink:href="#bp"/><use transform="matrix(0.008173828125000001,0,0,0.008173828125000001,148.95166992187504,0)" xlink:href="#Y"/></g><path fill="#333" d="M218-607c0-325 108-727 258-974h175c-155 315-250 682-250 974 0 265 78 531 250 886H476C306-10 218-315 218-607" id="bq"/><path fill="#333" d="M657 26c-323 0-524-166-541-416h195c15 169 171 246 346 246 202 0 356-106 356-265 5-203-294-238-475-293-239-73-380-191-380-389 0-252 224-419 512-419 294 0 499 171 508 396H992c-17-145-151-228-328-228-193 0-321 102-321 242 0 156 175 211 284 241l149 41c160 44 422 134 422 412 0 244-197 432-541 432" id="br"/><g id="x"><use transform="matrix(0.008173828125000001,0,0,0.008173828125000001,0,0)" xlink:href="#av"/><use transform="matrix(0.008173828125000001,0,0,0.008173828125000001,4.05421875,0)" xlink:href="#an"/><use transform="matrix(0.008173828125000001,0,0,0.008173828125000001,8.1084375,0)" xlink:href="#ao"/><use transform="matrix(0.008173828125000001,0,0,0.008173828125000001,18.374765625000002,0)" xlink:href="#at"/><use transform="matrix(0.008173828125000001,0,0,0.008173828125000001,27.774667968750002,0)" xlink:href="#am"/><use transform="matrix(0.008173828125000001,0,0,0.008173828125000001,34.076689453125,0)" xlink:href="#bq"/><use transform="matrix(0.008173828125000001,0,0,0.008173828125000001,40.1825390625,0)" xlink:href="#br"/><use transform="matrix(0.008173828125000001,0,0,0.008173828125000001,50.92294921875,0)" xlink:href="#al"/><use transform="matrix(0.008173828125000001,0,0,0.008173828125000001,56.3994140625,0)" xlink:href="#am"/><use transform="matrix(0.008173828125000001,0,0,0.008173828125000001,62.962998046875,0)" xlink:href="#an"/><use transform="matrix(0.008173828125000001,0,0,0.008173828125000001,67.017216796875,0)" xlink:href="#af"/><use transform="matrix(0.008173828125000001,0,0,0.008173828125000001,76.90754882812499,0)" xlink:href="#ao"/></g><path fill="#333" d="M96 279C273-86 346-350 346-607c0-292-95-659-250-974h175c150 246 258 650 258 974 0 297-91 602-258 886H96" id="bs"/><path fill="#333" d="M481 0L54-1118h197c107 314 236 620 325 951 87-331 217-637 324-951h197L670 0H481" id="bt"/><g id="y"><use transform="matrix(0.008173828125000001,0,0,0.008173828125000001,0,0)" xlink:href="#af"/><use transform="matrix(0.008173828125000001,0,0,0.008173828125000001,9.89033203125,0)" xlink:href="#aw"/><use transform="matrix(0.008173828125000001,0,0,0.008173828125000001,19.788837890625004,0)" xlink:href="#ar"/><use transform="matrix(0.008173828125000001,0,0,0.008173828125000001,34.452685546875,0)" xlink:href="#ag"/><use transform="matrix(0.008173828125000001,0,0,0.008173828125000001,44.212236328125,0)" xlink:href="#am"/><use transform="matrix(0.008173828125000001,0,0,0.008173828125000001,50.236347656250004,0)" xlink:href="#ae"/><use transform="matrix(0.008173828125000001,0,0,0.008173828125000001,60.085810546875,0)" xlink:href="#bs"/><use transform="matrix(0.008173828125000001,0,0,0.008173828125000001,66.19166015625001,0)" xlink:href="#aj"/><use transform="matrix(0.008173828125000001,0,0,0.008173828125000001,71.01421875000001,0)" xlink:href="#bt"/><use transform="matrix(0.008173828125000001,0,0,0.008173828125000001,80.095341796875,0)" xlink:href="#ae"/><use transform="matrix(0.008173828125000001,0,0,0.008173828125000001,90.132802734375,0)" xlink:href="#an"/><use transform="matrix(0.008173828125000001,0,0,0.008173828125000001,94.18702148437501,0)" xlink:href="#ai"/></g><g id="z"><use transform="matrix(0.008173828125000001,0,0,0.008173828125000001,0,0)" xlink:href="#at"/><use transform="matrix(0.008173828125000001,0,0,0.008173828125000001,9.399902343750002,0)" xlink:href="#al"/><use transform="matrix(0.008173828125000001,0,0,0.008173828125000001,14.712890625000004,0)" xlink:href="#ag"/><use transform="matrix(0.008173828125000001,0,0,0.008173828125000001,24.472441406250006,0)" xlink:href="#af"/><use transform="matrix(0.008173828125000001,0,0,0.008173828125000001,34.36277343750001,0)" xlink:href="#ai"/><use transform="matrix(0.008173828125000001,0,0,0.008173828125000001,44.61275390625001,0)" xlink:href="#ag"/><use transform="matrix(0.008173828125000001,0,0,0.008173828125000001,54.37230468750001,0)" xlink:href="#am"/><use transform="matrix(0.008173828125000001,0,0,0.008173828125000001,60.67432617187501,0)" xlink:href="#bq"/><use transform="matrix(0.008173828125000001,0,0,0.008173828125000001,66.78017578125001,0)" xlink:href="#bs"/><use transform="matrix(0.008173828125000001,0,0,0.008173828125000001,72.88602539062501,0)" xlink:href="#aj"/><use transform="matrix(0.008173828125000001,0,0,0.008173828125000001,77.70858398437501,0)" xlink:href="#bt"/><use transform="matrix(0.008173828125000001,0,0,0.008173828125000001,86.78970703125,0)" xlink:href="#ae"/><use transform="matrix(0.008173828125000001,0,0,0.008173828125000001,96.82716796874999,0)" xlink:href="#an"/><use transform="matrix(0.008173828125000001,0,0,0.008173828125000001,100.88138671875001,0)" xlink:href="#ai"/></g><path fill="#333" d="M613 24c-304 0-509-231-509-576 0-350 205-580 509-580 216 0 392 114 453 309l-173 49c-33-115-133-197-280-197-223 0-326 196-326 419 0 220 103 415 326 415 150 0 252-85 285-206l172 49C1010-95 832 24 613 24" id="bu"/><path fill="#333" d="M783 20c-382 0-661-292-661-764 0-473 279-766 661-766 302 0 548 182 601 489h-190c-42-204-217-313-411-313-268 0-476 208-476 590 0 381 209 588 476 588 195 0 369-110 411-313h190c-52 303-296 489-601 489" id="bv"/><path fill="#333" d="M126 0v-134l627-806v-11H146v-167h839v143L376-178v11h629V0H126" id="bw"/><g id="A"><use transform="matrix(0.008173828125000001,0,0,0.008173828125000001,0,0)" xlink:href="#an"/><use transform="matrix(0.008173828125000001,0,0,0.008173828125000001,4.05421875,0)" xlink:href="#af"/><use transform="matrix(0.008173828125000001,0,0,0.008173828125000001,13.944550781250001,0)" xlink:href="#an"/><use transform="matrix(0.008173828125000001,0,0,0.008173828125000001,17.99876953125,0)" xlink:href="#bu"/><use transform="matrix(0.008173828125000001,0,0,0.008173828125000001,27.562148437500003,0)" xlink:href="#an"/><use transform="matrix(0.008173828125000001,0,0,0.008173828125000001,31.616367187500003,0)" xlink:href="#at"/><use transform="matrix(0.008173828125000001,0,0,0.008173828125000001,41.01626953125,0)" xlink:href="#am"/><use transform="matrix(0.008173828125000001,0,0,0.008173828125000001,47.31829101562501,0)" xlink:href="#bv"/><use transform="matrix(0.008173828125000001,0,0,0.008173828125000001,59.54633789062501,0)" xlink:href="#ae"/><use transform="matrix(0.008173828125000001,0,0,0.008173828125000001,69.58379882812501,0)" xlink:href="#am"/><use transform="matrix(0.008173828125000001,0,0,0.008173828125000001,76.14738281250001,0)" xlink:href="#am"/><use transform="matrix(0.008173828125000001,0,0,0.008173828125000001,82.17149414062501,0)" xlink:href="#ag"/><use transform="matrix(0.008173828125000001,0,0,0.008173828125000001,91.93104492187501,0)" xlink:href="#an"/><use transform="matrix(0.008173828125000001,0,0,0.008173828125000001,95.98526367187502,0)" xlink:href="#ae"/><use transform="matrix(0.008173828125000001,0,0,0.008173828125000001,105.17264648437502,0)" xlink:href="#ap"/><use transform="matrix(0.008173828125000001,0,0,0.008173828125000001,115.87218750000002,0)" xlink:href="#ae"/><use transform="matrix(0.008173828125000001,0,0,0.008173828125000001,125.66443359375002,0)" xlink:href="#bw"/><use transform="matrix(0.008173828125000001,0,0,0.008173828125000001,134.90903320312503,0)" xlink:href="#bq"/><use transform="matrix(0.008173828125000001,0,0,0.008173828125000001,141.01488281250005,0)" xlink:href="#bs"/><use transform="matrix(0.008173828125000001,0,0,0.008173828125000001,147.12073242187506,0)" xlink:href="#aj"/><use transform="matrix(0.008173828125000001,0,0,0.008173828125000001,151.94329101562505,0)" xlink:href="#bt"/><use transform="matrix(0.008173828125000001,0,0,0.008173828125000001,161.02441406250006,0)" xlink:href="#ae"/><use transform="matrix(0.008173828125000001,0,0,0.008173828125000001,171.06187500000004,0)" xlink:href="#an"/><use transform="matrix(0.008173828125000001,0,0,0.008173828125000001,175.11609375000003,0)" xlink:href="#ai"/></g><path fill="#333" d="M135 0v-1490h581c339 0 533 192 533 485 0 204-94 351-264 424L1302 0H964L680-532H440V0H135zm305-779h220c186 0 274-77 274-226 0-150-88-233-275-233H440v459" id="bx"/><path fill="#333" d="M537 19C279 19 81-185 81-557c0-382 206-575 454-575 190 0 278 113 318 202h10v-560h300V0H868v-179h-15C812-89 719 19 537 19zm92-241c153 0 240-134 240-336 0-203-86-334-240-334-158 0-240 138-240 334 0 197 84 336 240 336" id="by"/><path fill="#333" d="M513 14c-232 0-385-159-385-421v-711h300v659c0 139 76 222 202 222 127 0 217-86 217-234v-647h301V0H864l-4-232C797-74 683 14 513 14" id="bz"/><path fill="#333" d="M683-1118v229H474v562c0 71 29 104 102 104 23 0 73-7 95-13l43 225C647 9 580 16 520 16 296 16 174-96 174-301v-588H20v-229h154v-266h300v266h209" id="bA"/><path fill="#333" d="M135 0v-1490h468l242 684c30 94 76 293 111 455 34-161 80-360 110-455l238-684h470V0h-307c0-447-3-765 11-1227-122 503-246 788-395 1227H826C676-435 552-717 427-1215c15 453 11 775 11 1215H135" id="bB"/><path fill="#333" d="M572 22C302 22 117-98 78-306l279-48c29 105 101 156 224 156 114 0 185-48 185-115 0-118-228-130-337-155-215-49-322-150-322-317 0-215 187-347 470-347 265 0 424 116 466 298l-266 47c-24-76-87-130-196-130-98 0-174 46-174 113 0 56 38 95 144 117l201 40c216 44 320 143 320 302 0 220-207 367-500 367" id="bC"/><g id="B"><use transform="matrix(0.008173828125000001,0,0,0.008173828125000001,0,0)" xlink:href="#bx"/><use transform="matrix(0.008173828125000001,0,0,0.008173828125000001,10.789453125000001,0)" xlink:href="#aa"/><use transform="matrix(0.008173828125000001,0,0,0.008173828125000001,20.761523437500003,0)" xlink:href="#W"/><use transform="matrix(0.008173828125000001,0,0,0.008173828125000001,31.313935546875005,0)" xlink:href="#bj"/><use transform="matrix(0.008173828125000001,0,0,0.008173828125000001,37.722216796875,0)" xlink:href="#Y"/><use transform="matrix(0.008173828125000001,0,0,0.008173828125000001,47.988544921875004,0)" xlink:href="#by"/><use transform="matrix(0.008173828125000001,0,0,0.008173828125000001,58.54095703125,0)" xlink:href="#bz"/><use transform="matrix(0.008173828125000001,0,0,0.008173828125000001,68.962587890625,0)" xlink:href="#bA"/><use transform="matrix(0.008173828125000001,0,0,0.008173828125000001,74.92948242187501,0)" xlink:href="#Y"/><use transform="matrix(0.008173828125000001,0,0,0.008173828125000001,85.19581054687501,0)" xlink:href="#bj"/><use transform="matrix(0.008173828125000001,0,0,0.008173828125000001,92.27434570312501,0)" xlink:href="#bB"/><use transform="matrix(0.008173828125000001,0,0,0.008173828125000001,107.87000976562501,0)" xlink:href="#bz"/><use transform="matrix(0.008173828125000001,0,0,0.008173828125000001,118.29164062500001,0)" xlink:href="#bC"/><use transform="matrix(0.008173828125000001,0,0,0.008173828125000001,127.66702148437501,0)" xlink:href="#bo"/><use transform="matrix(0.008173828125000001,0,0,0.008173828125000001,132.20349609375,0)" xlink:href="#bp"/><use transform="matrix(0.008173828125000001,0,0,0.008173828125000001,142.216435546875,0)" xlink:href="#bi"/><use transform="matrix(0.008173828125000001,0,0,0.008173828125000001,151.9351171875,0)" xlink:href="#bk"/></g><g id="C"><use transform="matrix(0.008173828125000001,0,0,0.008173828125000001,0,0)" xlink:href="#al"/><use transform="matrix(0.008173828125000001,0,0,0.008173828125000001,5.312988281250001,0)" xlink:href="#ae"/><use transform="matrix(0.008173828125000001,0,0,0.008173828125000001,15.35044921875,0)" xlink:href="#bu"/><use transform="matrix(0.008173828125000001,0,0,0.008173828125000001,25.077304687500003,0)" xlink:href="#at"/><use transform="matrix(0.008173828125000001,0,0,0.008173828125000001,34.47720703125,0)" xlink:href="#am"/><use transform="matrix(0.008173828125000001,0,0,0.008173828125000001,40.77922851562501,0)" xlink:href="#bq"/><use transform="matrix(0.008173828125000001,0,0,0.008173828125000001,46.88507812500001,0)" xlink:href="#bs"/><use transform="matrix(0.008173828125000001,0,0,0.008173828125000001,52.990927734375006,0)" xlink:href="#aj"/><use transform="matrix(0.008173828125000001,0,0,0.008173828125000001,57.81348632812501,0)" xlink:href="#bt"/><use transform="matrix(0.008173828125000001,0,0,0.008173828125000001,66.894609375,0)" xlink:href="#ae"/><use transform="matrix(0.008173828125000001,0,0,0.008173828125000001,76.9320703125,0)" xlink:href="#an"/><use transform="matrix(0.008173828125000001,0,0,0.008173828125000001,80.9862890625,0)" xlink:href="#ai"/></g><g id="D"><use transform="matrix(0.008173828125000001,0,0,0.008173828125000001,0,0)" xlink:href="#ac"/><use transform="matrix(0.008173828125000001,0,0,0.008173828125000001,10.413457031250001,0)" xlink:href="#at"/><use transform="matrix(0.008173828125000001,0,0,0.008173828125000001,19.813359375000005,0)" xlink:href="#aw"/><use transform="matrix(0.008173828125000001,0,0,0.008173828125000001,29.711865234375004,0)" xlink:href="#ak"/><use transform="matrix(0.008173828125000001,0,0,0.008173828125000001,38.547773437500005,0)" xlink:href="#at"/><use transform="matrix(0.008173828125000001,0,0,0.008173828125000001,47.947675781250005,0)" xlink:href="#am"/><use transform="matrix(0.008173828125000001,0,0,0.008173828125000001,54.249697265625,0)" xlink:href="#bq"/><use transform="matrix(0.008173828125000001,0,0,0.008173828125000001,60.355546875,0)" xlink:href="#bs"/><use transform="matrix(0.008173828125000001,0,0,0.008173828125000001,66.461396484375,0)" xlink:href="#aj"/><use transform="matrix(0.008173828125000001,0,0,0.008173828125000001,71.283955078125,0)" xlink:href="#bt"/><use transform="matrix(0.008173828125000001,0,0,0.008173828125000001,80.365078125,0)" xlink:href="#ae"/><use transform="matrix(0.008173828125000001,0,0,0.008173828125000001,90.4025390625,0)" xlink:href="#an"/><use transform="matrix(0.008173828125000001,0,0,0.008173828125000001,94.4567578125,0)" xlink:href="#ai"/></g><path fill="#333" d="M180 0v-1490h270l367 940c28 72 75 218 110 339 35-117 81-264 110-339l362-940h271V0h-187c2-448-5-837 7-1287-157 497-311 829-483 1287H842C666-458 514-784 354-1284c12 438 5 843 7 1284H180" id="bD"/><g id="E"><use transform="matrix(0.008173828125000001,0,0,0.008173828125000001,0,0)" xlink:href="#ak"/><use transform="matrix(0.008173828125000001,0,0,0.008173828125000001,8.835908203125001,0)" xlink:href="#ag"/><use transform="matrix(0.008173828125000001,0,0,0.008173828125000001,18.595458984375,0)" xlink:href="#av"/><use transform="matrix(0.008173828125000001,0,0,0.008173828125000001,22.649677734375,0)" xlink:href="#ag"/><use transform="matrix(0.008173828125000001,0,0,0.008173828125000001,32.409228515625,0)" xlink:href="#bu"/><use transform="matrix(0.008173828125000001,0,0,0.008173828125000001,41.972607421875004,0)" xlink:href="#an"/><use transform="matrix(0.008173828125000001,0,0,0.008173828125000001,46.026826171875,0)" xlink:href="#ae"/><use transform="matrix(0.008173828125000001,0,0,0.008173828125000001,56.064287109375,0)" xlink:href="#af"/><use transform="matrix(0.008173828125000001,0,0,0.008173828125000001,65.954619140625,0)" xlink:href="#at"/><use transform="matrix(0.008173828125000001,0,0,0.008173828125000001,75.354521484375,0)" xlink:href="#am"/><use transform="matrix(0.008173828125000001,0,0,0.008173828125000001,81.91810546875,0)" xlink:href="#bD"/><use transform="matrix(0.008173828125000001,0,0,0.008173828125000001,97.0396875,0)" xlink:href="#aw"/><use transform="matrix(0.008173828125000001,0,0,0.008173828125000001,106.938193359375,0)" xlink:href="#ak"/><use transform="matrix(0.008173828125000001,0,0,0.008173828125000001,115.77410156250001,0)" xlink:href="#an"/><use transform="matrix(0.008173828125000001,0,0,0.008173828125000001,119.82832031250001,0)" xlink:href="#bu"/><use transform="matrix(0.008173828125000001,0,0,0.008173828125000001,129.55517578125,0)" xlink:href="#at"/><use transform="matrix(0.008173828125000001,0,0,0.008173828125000001,138.955078125,0)" xlink:href="#bq"/><use transform="matrix(0.008173828125000001,0,0,0.008173828125000001,145.060927734375,0)" xlink:href="#br"/><use transform="matrix(0.008173828125000001,0,0,0.008173828125000001,155.801337890625,0)" xlink:href="#al"/><use transform="matrix(0.008173828125000001,0,0,0.008173828125000001,161.277802734375,0)" xlink:href="#am"/><use transform="matrix(0.008173828125000001,0,0,0.008173828125000001,167.84138671875,0)" xlink:href="#an"/><use transform="matrix(0.008173828125000001,0,0,0.008173828125000001,171.89560546874998,0)" xlink:href="#af"/><use transform="matrix(0.008173828125000001,0,0,0.008173828125000001,181.7859375,0)" xlink:href="#ao"/></g><g id="F"><use transform="matrix(0.008173828125000001,0,0,0.008173828125000001,0,0)" xlink:href="#ar"/><use transform="matrix(0.008173828125000001,0,0,0.008173828125000001,14.663847656250002,0)" xlink:href="#aw"/><use transform="matrix(0.008173828125000001,0,0,0.008173828125000001,24.562353515625006,0)" xlink:href="#ak"/><use transform="matrix(0.008173828125000001,0,0,0.008173828125000001,33.39826171875001,0)" xlink:href="#an"/><use transform="matrix(0.008173828125000001,0,0,0.008173828125000001,37.45248046875001,0)" xlink:href="#bu"/><use transform="matrix(0.008173828125000001,0,0,0.008173828125000001,47.179335937500014,0)" xlink:href="#at"/><use transform="matrix(0.008173828125000001,0,0,0.008173828125000001,56.579238281250014,0)" xlink:href="#bs"/><use transform="matrix(0.008173828125000001,0,0,0.008173828125000001,62.68508789062501,0)" xlink:href="#aj"/><use transform="matrix(0.008173828125000001,0,0,0.008173828125000001,67.50764648437502,0)" xlink:href="#bt"/><use transform="matrix(0.008173828125000001,0,0,0.008173828125000001,76.58876953125001,0)" xlink:href="#ae"/><use transform="matrix(0.008173828125000001,0,0,0.008173828125000001,86.62623046875001,0)" xlink:href="#an"/><use transform="matrix(0.008173828125000001,0,0,0.008173828125000001,90.68044921875001,0)" xlink:href="#ai"/></g><path fill="#333" d="M135 0v-1490h340l471 754c59 97 122 210 187 365-32-387-14-721-19-1119h312V0h-341C855-382 627-689 427-1113c32 420 16 695 20 1113H135" id="bE"/><path fill="#333" d="M443 0L31-1118h319c90 293 199 572 268 885 66-313 175-593 264-885h315L784 0H443" id="bF"/><path fill="#333" d="M625 442c-280 0-454-114-503-274l258-72c28 63 97 128 243 128 153 0 246-69 246-216v-206h-23C805-108 717-16 536-16 284-16 81-191 81-561c0-378 208-571 456-571 188 0 280 113 321 202h13v-188h295V-9c0 303-226 451-541 451zm5-686c153 0 240-119 240-319 0-198-86-329-240-329-158 0-241 137-241 329 0 195 85 319 241 319" id="bG"/><path fill="#333" d="M659 0H135v-1490h529c448 0 721 280 721 744 0 466-273 746-726 746zM440-263h204c287 0 437-148 437-483 0-333-150-481-435-481H440v964" id="bH"/><g id="H"><use transform="matrix(0.008173828125000001,0,0,0.008173828125000001,0,0)" xlink:href="#bE"/><use transform="matrix(0.008173828125000001,0,0,0.008173828125000001,12.759345703125001,0)" xlink:href="#bi"/><use transform="matrix(0.008173828125000001,0,0,0.008173828125000001,22.191943359375003,0)" xlink:href="#bF"/><use transform="matrix(0.008173828125000001,0,0,0.008173828125000001,31.926972656250005,0)" xlink:href="#aa"/><use transform="matrix(0.008173828125000001,0,0,0.008173828125000001,41.89904296875001,0)" xlink:href="#bG"/><use transform="matrix(0.008173828125000001,0,0,0.008173828125000001,52.47597656250001,0)" xlink:href="#bi"/><use transform="matrix(0.008173828125000001,0,0,0.008173828125000001,62.19465820312501,0)" xlink:href="#by"/><use transform="matrix(0.008173828125000001,0,0,0.008173828125000001,72.74707031250001,0)" xlink:href="#Y"/><use transform="matrix(0.008173828125000001,0,0,0.008173828125000001,83.01339843750002,0)" xlink:href="#bj"/><use transform="matrix(0.008173828125000001,0,0,0.008173828125000001,90.09193359375001,0)" xlink:href="#bH"/><use transform="matrix(0.008173828125000001,0,0,0.008173828125000001,102.18102539062501,0)" xlink:href="#bi"/><use transform="matrix(0.008173828125000001,0,0,0.008173828125000001,111.89970703125002,0)" xlink:href="#V"/><use transform="matrix(0.008173828125000001,0,0,0.008173828125000001,116.59965820312502,0)" xlink:href="#Z"/><use transform="matrix(0.008173828125000001,0,0,0.008173828125000001,127.02128906250002,0)" xlink:href="#bA"/><use transform="matrix(0.008173828125000001,0,0,0.008173828125000001,132.98818359375002,0)" xlink:href="#aa"/><use transform="matrix(0.008173828125000001,0,0,0.008173828125000001,142.96025390625002,0)" xlink:href="#bj"/><use transform="matrix(0.008173828125000001,0,0,0.008173828125000001,149.899833984375,0)" xlink:href="#Z"/><use transform="matrix(0.008173828125000001,0,0,0.008173828125000001,160.32146484375,0)" xlink:href="#aa"/><use transform="matrix(0.008173828125000001,0,0,0.008173828125000001,170.29353515625,0)" xlink:href="#bA"/></g><path fill="#333" d="M65 0l393-574-370-544h210c88 136 192 297 267 435 67-142 176-302 264-435h206L661-564 1053 0H844c-94-144-206-310-287-458C484-308 366-142 273 0H65" id="bI"/><path fill="#333" d="M180 0v-1490h510c348 0 508 209 508 474 0 266-160 477-507 477H370V0H180zm190-706h312c236 0 327-133 327-310 0-176-91-307-329-307H370v617" id="bJ"/><g id="I"><use transform="matrix(0.008173828125000001,0,0,0.008173828125000001,0,0)" xlink:href="#ag"/><use transform="matrix(0.008173828125000001,0,0,0.008173828125000001,9.383554687500002,0)" xlink:href="#bI"/><use transform="matrix(0.008173828125000001,0,0,0.008173828125000001,18.521894531250002,0)" xlink:href="#an"/><use transform="matrix(0.008173828125000001,0,0,0.008173828125000001,22.576113281250002,0)" xlink:href="#as"/><use transform="matrix(0.008173828125000001,0,0,0.008173828125000001,32.826093750000005,0)" xlink:href="#an"/><use transform="matrix(0.008173828125000001,0,0,0.008173828125000001,36.8803125,0)" xlink:href="#am"/><use transform="matrix(0.008173828125000001,0,0,0.008173828125000001,43.443896484375,0)" xlink:href="#bJ"/><use transform="matrix(0.008173828125000001,0,0,0.008173828125000001,54.135263671875,0)" xlink:href="#at"/><use transform="matrix(0.008173828125000001,0,0,0.008173828125000001,63.535166015625,0)" xlink:href="#ao"/><use transform="matrix(0.008173828125000001,0,0,0.008173828125000001,73.80149414062501,0)" xlink:href="#an"/><use transform="matrix(0.008173828125000001,0,0,0.008173828125000001,77.85571289062501,0)" xlink:href="#af"/><use transform="matrix(0.008173828125000001,0,0,0.008173828125000001,87.74604492187501,0)" xlink:href="#at"/><use transform="matrix(0.008173828125000001,0,0,0.008173828125000001,97.14594726562501,0)" xlink:href="#bq"/><use transform="matrix(0.008173828125000001,0,0,0.008173828125000001,103.25179687500001,0)" xlink:href="#br"/><use transform="matrix(0.008173828125000001,0,0,0.008173828125000001,113.99220703125002,0)" xlink:href="#al"/><use transform="matrix(0.008173828125000001,0,0,0.008173828125000001,119.46867187500001,0)" xlink:href="#am"/><use transform="matrix(0.008173828125000001,0,0,0.008173828125000001,126.03225585937501,0)" xlink:href="#an"/><use transform="matrix(0.008173828125000001,0,0,0.008173828125000001,130.08647460937502,0)" xlink:href="#af"/><use transform="matrix(0.008173828125000001,0,0,0.008173828125000001,139.97680664062503,0)" xlink:href="#ao"/></g><g id="J"><use transform="matrix(0.008173828125000001,0,0,0.008173828125000001,0,0)" xlink:href="#aw"/><use transform="matrix(0.008173828125000001,0,0,0.008173828125000001,9.898505859375001,0)" xlink:href="#am"/><use transform="matrix(0.008173828125000001,0,0,0.008173828125000001,16.46208984375,0)" xlink:href="#av"/><use transform="matrix(0.008173828125000001,0,0,0.008173828125000001,20.51630859375,0)" xlink:href="#bs"/><use transform="matrix(0.008173828125000001,0,0,0.008173828125000001,26.622158203125,0)" xlink:href="#aj"/><use transform="matrix(0.008173828125000001,0,0,0.008173828125000001,31.444716796875,0)" xlink:href="#bt"/><use transform="matrix(0.008173828125000001,0,0,0.008173828125000001,40.52583984375,0)" xlink:href="#ae"/><use transform="matrix(0.008173828125000001,0,0,0.008173828125000001,50.56330078125,0)" xlink:href="#an"/><use transform="matrix(0.008173828125000001,0,0,0.008173828125000001,54.61751953125,0)" xlink:href="#ai"/></g><path fill="#333" d="M180 0v-1490h224l606 953c40 63 108 177 176 312-27-437-7-821-13-1265h190V0h-226C860-448 622-778 356-1262c27 476 11 792 15 1262H180" id="bK"/><path fill="#333" d="M52 0l541-1490h220L1361 0h-200l-149-416H398L254 0H52zm404-582h497c-103-290-145-390-251-756-108 377-145 460-246 756" id="bL"/><g id="K"><use transform="matrix(0.008173828125000001,0,0,0.008173828125000001,0,0)" xlink:href="#at"/><use transform="matrix(0.008173828125000001,0,0,0.008173828125000001,9.399902343750002,0)" xlink:href="#ai"/><use transform="matrix(0.008173828125000001,0,0,0.008173828125000001,19.649882812500003,0)" xlink:href="#an"/><use transform="matrix(0.008173828125000001,0,0,0.008173828125000001,23.704101562500004,0)" xlink:href="#bu"/><use transform="matrix(0.008173828125000001,0,0,0.008173828125000001,33.26748046875001,0)" xlink:href="#an"/><use transform="matrix(0.008173828125000001,0,0,0.008173828125000001,37.32169921875001,0)" xlink:href="#ae"/><use transform="matrix(0.008173828125000001,0,0,0.008173828125000001,47.35916015625001,0)" xlink:href="#af"/><use transform="matrix(0.008173828125000001,0,0,0.008173828125000001,57.24949218750001,0)" xlink:href="#at"/><use transform="matrix(0.008173828125000001,0,0,0.008173828125000001,66.64939453125001,0)" xlink:href="#am"/><use transform="matrix(0.008173828125000001,0,0,0.008173828125000001,73.21297851562501,0)" xlink:href="#bK"/><use transform="matrix(0.008173828125000001,0,0,0.008173828125000001,85.82519531250001,0)" xlink:href="#ae"/><use transform="matrix(0.008173828125000001,0,0,0.008173828125000001,95.53570312500001,0)" xlink:href="#bt"/><use transform="matrix(0.008173828125000001,0,0,0.008173828125000001,104.86204101562501,0)" xlink:href="#at"/><use transform="matrix(0.008173828125000001,0,0,0.008173828125000001,114.26194335937501,0)" xlink:href="#bL"/><use transform="matrix(0.008173828125000001,0,0,0.008173828125000001,125.81156250000001,0)" xlink:href="#as"/><use transform="matrix(0.008173828125000001,0,0,0.008173828125000001,136.22501953125,0)" xlink:href="#at"/><use transform="matrix(0.008173828125000001,0,0,0.008173828125000001,145.624921875,0)" xlink:href="#bq"/><use transform="matrix(0.008173828125000001,0,0,0.008173828125000001,151.73077148437503,0)" xlink:href="#bs"/><use transform="matrix(0.008173828125000001,0,0,0.008173828125000001,157.83662109375004,0)" xlink:href="#aj"/><use transform="matrix(0.008173828125000001,0,0,0.008173828125000001,162.65917968750003,0)" xlink:href="#bt"/><use transform="matrix(0.008173828125000001,0,0,0.008173828125000001,171.740302734375,0)" xlink:href="#ae"/><use transform="matrix(0.008173828125000001,0,0,0.008173828125000001,181.77776367187505,0)" xlink:href="#an"/><use transform="matrix(0.008173828125000001,0,0,0.008173828125000001,185.83198242187504,0)" xlink:href="#ai"/></g><g id="L"><use transform="matrix(0.008173828125000001,0,0,0.008173828125000001,0,0)" xlink:href="#at"/><use transform="matrix(0.008173828125000001,0,0,0.008173828125000001,9.399902343750002,0)" xlink:href="#al"/><use transform="matrix(0.008173828125000001,0,0,0.008173828125000001,14.876367187500001,0)" xlink:href="#aw"/><use transform="matrix(0.008173828125000001,0,0,0.008173828125000001,24.774873046875005,0)" xlink:href="#at"/><use transform="matrix(0.008173828125000001,0,0,0.008173828125000001,34.174775390625,0)" xlink:href="#av"/><use transform="matrix(0.008173828125000001,0,0,0.008173828125000001,38.228994140625005,0)" xlink:href="#an"/><use transform="matrix(0.008173828125000001,0,0,0.008173828125000001,42.28321289062501,0)" xlink:href="#bw"/><use transform="matrix(0.008173828125000001,0,0,0.008173828125000001,51.52781250000001,0)" xlink:href="#at"/><use transform="matrix(0.008173828125000001,0,0,0.008173828125000001,60.92771484375001,0)" xlink:href="#am"/><use transform="matrix(0.008173828125000001,0,0,0.008173828125000001,67.49129882812501,0)" xlink:href="#bJ"/><use transform="matrix(0.008173828125000001,0,0,0.008173828125000001,78.18266601562503,0)" xlink:href="#at"/><use transform="matrix(0.008173828125000001,0,0,0.008173828125000001,87.58256835937502,0)" xlink:href="#ao"/><use transform="matrix(0.008173828125000001,0,0,0.008173828125000001,97.84889648437502,0)" xlink:href="#an"/><use transform="matrix(0.008173828125000001,0,0,0.008173828125000001,101.90311523437502,0)" xlink:href="#af"/><use transform="matrix(0.008173828125000001,0,0,0.008173828125000001,111.79344726562502,0)" xlink:href="#at"/><use transform="matrix(0.008173828125000001,0,0,0.008173828125000001,121.19334960937502,0)" xlink:href="#bq"/><use transform="matrix(0.008173828125000001,0,0,0.008173828125000001,127.29919921875002,0)" xlink:href="#bs"/><use transform="matrix(0.008173828125000001,0,0,0.008173828125000001,133.40504882812502,0)" xlink:href="#aj"/><use transform="matrix(0.008173828125000001,0,0,0.008173828125000001,138.227607421875,0)" xlink:href="#bt"/><use transform="matrix(0.008173828125000001,0,0,0.008173828125000001,147.30873046875,0)" xlink:href="#ae"/><use transform="matrix(0.008173828125000001,0,0,0.008173828125000001,157.34619140625,0)" xlink:href="#an"/><use transform="matrix(0.008173828125000001,0,0,0.008173828125000001,161.40041015625,0)" xlink:href="#ai"/></g><path fill="#333" d="M795 20C377 20 94-272 94-743c0-483 302-767 694-767 335 0 593 206 635 500h-310c-42-142-154-229-320-229-230 0-389 177-389 493s154 495 393 495c212 0 340-120 345-311H818v-232h620v186c0 391-269 628-643 628" id="bM"/><path fill="#333" d="M135 0v-1490h581c339 0 533 210 533 503 0 295-197 500-540 500H440V0H135zm305-733h220c186 0 274-104 274-254s-88-251-275-251H440v505" id="bN"/><path fill="#333" d="M681 22C323 22 94-145 85-462h297c10 151 131 226 296 226 163 0 271-77 271-190 0-102-95-149-257-189l-164-41c-252-61-403-188-403-405 0-269 236-449 560-449 330 0 546 183 551 445H941c-11-119-106-188-259-188-156 0-244 72-244 172-3 156 226 185 373 221 250 61 445 186 445 436 0 271-213 446-575 446" id="bO"/><g id="M"><use transform="matrix(0.008173828125000001,0,0,0.008173828125000001,0,0)" xlink:href="#bM"/><use transform="matrix(0.008173828125000001,0,0,0.008173828125000001,12.563173828125002,0)" xlink:href="#bN"/><use transform="matrix(0.008173828125000001,0,0,0.008173828125000001,23.409843750000004,0)" xlink:href="#bO"/></g><path fill="#333" d="M1096 418H916v-591h-14C865-111 790 24 577 24c-279 0-473-224-473-580 0-354 195-576 474-576 218 0 287 134 324 193h20v-179h174V418zM604-137c203 0 314-172 314-421 0-247-108-413-314-413-212 0-317 181-317 413 0 235 108 421 317 421" id="bP"/><path fill="#333" d="M180 0v-1490h190v1322h690V0H180" id="bQ"/><g id="N"><use transform="matrix(0.008173828125000001,0,0,0.008173828125000001,0,0)" xlink:href="#ac"/><use transform="matrix(0.008173828125000001,0,0,0.008173828125000001,10.249980468750001,0)" xlink:href="#ag"/><use transform="matrix(0.008173828125000001,0,0,0.008173828125000001,20.009531250000002,0)" xlink:href="#ak"/><use transform="matrix(0.008173828125000001,0,0,0.008173828125000001,28.845439453125003,0)" xlink:href="#bP"/><use transform="matrix(0.008173828125000001,0,0,0.008173828125000001,39.095419921875006,0)" xlink:href="#aw"/><use transform="matrix(0.008173828125000001,0,0,0.008173828125000001,48.993925781250006,0)" xlink:href="#an"/><use transform="matrix(0.008173828125000001,0,0,0.008173828125000001,53.04814453125,0)" xlink:href="#ak"/><use transform="matrix(0.008173828125000001,0,0,0.008173828125000001,61.884052734375004,0)" xlink:href="#at"/><use transform="matrix(0.008173828125000001,0,0,0.008173828125000001,71.283955078125,0)" xlink:href="#am"/><use transform="matrix(0.008173828125000001,0,0,0.008173828125000001,77.8475390625,0)" xlink:href="#bQ"/><use transform="matrix(0.008173828125000001,0,0,0.008173828125000001,87.31283203125001,0)" xlink:href="#ae"/><use transform="matrix(0.008173828125000001,0,0,0.008173828125000001,97.35029296875001,0)" xlink:href="#bu"/><use transform="matrix(0.008173828125000001,0,0,0.008173828125000001,107.0771484375,0)" xlink:href="#at"/><use transform="matrix(0.008173828125000001,0,0,0.008173828125000001,116.47705078125,0)" xlink:href="#av"/><use transform="matrix(0.008173828125000001,0,0,0.008173828125000001,120.53126953125,0)" xlink:href="#bq"/><use transform="matrix(0.008173828125000001,0,0,0.008173828125000001,126.637119140625,0)" xlink:href="#br"/><use transform="matrix(0.008173828125000001,0,0,0.008173828125000001,137.377529296875,0)" xlink:href="#al"/><use transform="matrix(0.008173828125000001,0,0,0.008173828125000001,142.853994140625,0)" xlink:href="#am"/><use transform="matrix(0.008173828125000001,0,0,0.008173828125000001,149.41757812499998,0)" xlink:href="#an"/><use transform="matrix(0.008173828125000001,0,0,0.008173828125000001,153.47179687499997,0)" xlink:href="#af"/><use transform="matrix(0.008173828125000001,0,0,0.008173828125000001,163.36212890624998,0)" xlink:href="#ao"/></g><path fill="#333" d="M130 0v-134l666-991c45-67 96-135 147-202-269 9-546 3-821 5v-168h1036v136L502-379c-49 72-103 145-157 216 268-9 546-3 821-5V0H130" id="bR"/><g id="O"><use transform="matrix(0.008173828125000001,0,0,0.008173828125000001,0,0)" xlink:href="#ai"/><use transform="matrix(0.008173828125000001,0,0,0.008173828125000001,10.249980468750001,0)" xlink:href="#at"/><use transform="matrix(0.008173828125000001,0,0,0.008173828125000001,19.649882812500003,0)" xlink:href="#am"/><use transform="matrix(0.008173828125000001,0,0,0.008173828125000001,25.387910156250005,0)" xlink:href="#bR"/><use transform="matrix(0.008173828125000001,0,0,0.008173828125000001,35.915800781250006,0)" xlink:href="#ae"/><use transform="matrix(0.008173828125000001,0,0,0.008173828125000001,45.95326171875001,0)" xlink:href="#ae"/><use transform="matrix(0.008173828125000001,0,0,0.008173828125000001,55.99072265625001,0)" xlink:href="#ar"/><use transform="matrix(0.008173828125000001,0,0,0.008173828125000001,70.65457031250001,0)" xlink:href="#bq"/><use transform="matrix(0.008173828125000001,0,0,0.008173828125000001,76.76041992187501,0)" xlink:href="#bs"/><use transform="matrix(0.008173828125000001,0,0,0.008173828125000001,82.86626953125001,0)" xlink:href="#aj"/><use transform="matrix(0.008173828125000001,0,0,0.008173828125000001,87.68882812500001,0)" xlink:href="#bt"/><use transform="matrix(0.008173828125000001,0,0,0.008173828125000001,96.76995117187501,0)" xlink:href="#ae"/><use transform="matrix(0.008173828125000001,0,0,0.008173828125000001,106.80741210937501,0)" xlink:href="#an"/><use transform="matrix(0.008173828125000001,0,0,0.008173828125000001,110.86163085937501,0)" xlink:href="#ai"/></g><g id="P"><use transform="matrix(0.008173828125000001,0,0,0.008173828125000001,0,0)" xlink:href="#at"/><use transform="matrix(0.008173828125000001,0,0,0.008173828125000001,9.399902343750002,0)" xlink:href="#av"/><use transform="matrix(0.008173828125000001,0,0,0.008173828125000001,13.699335937500004,0)" xlink:href="#al"/><use transform="matrix(0.008173828125000001,0,0,0.008173828125000001,19.012324218750003,0)" xlink:href="#ag"/><use transform="matrix(0.008173828125000001,0,0,0.008173828125000001,28.771875,0)" xlink:href="#am"/><use transform="matrix(0.008173828125000001,0,0,0.008173828125000001,35.335458984375,0)" xlink:href="#af"/><use transform="matrix(0.008173828125000001,0,0,0.008173828125000001,45.225791015625006,0)" xlink:href="#at"/><use transform="matrix(0.008173828125000001,0,0,0.008173828125000001,54.625693359375006,0)" xlink:href="#am"/><use transform="matrix(0.008173828125000001,0,0,0.008173828125000001,60.92771484375001,0)" xlink:href="#ap"/><use transform="matrix(0.008173828125000001,0,0,0.008173828125000001,72.47733398437501,0)" xlink:href="#an"/><use transform="matrix(0.008173828125000001,0,0,0.008173828125000001,76.53155273437501,0)" xlink:href="#ak"/><use transform="matrix(0.008173828125000001,0,0,0.008173828125000001,85.36746093750001,0)" xlink:href="#at"/><use transform="matrix(0.008173828125000001,0,0,0.008173828125000001,94.76736328125001,0)" xlink:href="#ae"/><use transform="matrix(0.008173828125000001,0,0,0.008173828125000001,104.80482421875001,0)" xlink:href="#bq"/><use transform="matrix(0.008173828125000001,0,0,0.008173828125000001,110.91067382812501,0)" xlink:href="#bs"/><use transform="matrix(0.008173828125000001,0,0,0.008173828125000001,117.01652343750001,0)" xlink:href="#aj"/><use transform="matrix(0.008173828125000001,0,0,0.008173828125000001,121.83908203125002,0)" xlink:href="#bt"/><use transform="matrix(0.008173828125000001,0,0,0.008173828125000001,130.920205078125,0)" xlink:href="#ae"/><use transform="matrix(0.008173828125000001,0,0,0.008173828125000001,140.95766601562502,0)" xlink:href="#an"/><use transform="matrix(0.008173828125000001,0,0,0.008173828125000001,145.011884765625,0)" xlink:href="#ai"/></g><path fill="#333" d="M128 0v-1118h278l12 217c60-163 185-234 319-234 143 0 236 81 288 251 63-172 205-251 359-251 205 0 357 138 357 381V0h-301v-697c0-126-76-187-177-187-114 0-184 79-184 196V0H789v-705c0-109-72-179-174-179-106 0-187 74-187 208V0H128" id="bS"/><g id="Q"><use transform="matrix(0.008173828125000001,0,0,0.008173828125000001,0,0)" xlink:href="#bO"/><use transform="matrix(0.008173828125000001,0,0,0.008173828125000001,10.961103515625002,0)" xlink:href="#aa"/><use transform="matrix(0.008173828125000001,0,0,0.008173828125000001,20.933173828125003,0)" xlink:href="#bj"/><use transform="matrix(0.008173828125000001,0,0,0.008173828125000001,28.011708984375,0)" xlink:href="#bF"/><use transform="matrix(0.008173828125000001,0,0,0.008173828125000001,38.049169921875006,0)" xlink:href="#bo"/><use transform="matrix(0.008173828125000001,0,0,0.008173828125000001,42.585644531250004,0)" xlink:href="#bp"/><use transform="matrix(0.008173828125000001,0,0,0.008173828125000001,52.435107421875,0)" xlink:href="#Y"/><use transform="matrix(0.008173828125000001,0,0,0.008173828125000001,62.701435546875004,0)" xlink:href="#bH"/><use transform="matrix(0.008173828125000001,0,0,0.008173828125000001,74.79052734375,0)" xlink:href="#aa"/><use transform="matrix(0.008173828125000001,0,0,0.008173828125000001,84.76259765625,0)" xlink:href="#bB"/><use transform="matrix(0.008173828125000001,0,0,0.008173828125000001,100.35826171875,0)" xlink:href="#aa"/><use transform="matrix(0.008173828125000001,0,0,0.008173828125000001,110.33033203125001,0)" xlink:href="#Z"/><use transform="matrix(0.008173828125000001,0,0,0.008173828125000001,120.75196289062501,0)" xlink:href="#bC"/><use transform="matrix(0.008173828125000001,0,0,0.008173828125000001,130.12734375000002,0)" xlink:href="#bi"/><use transform="matrix(0.008173828125000001,0,0,0.008173828125000001,139.84602539062502,0)" xlink:href="#bG"/><use transform="matrix(0.008173828125000001,0,0,0.008173828125000001,150.42295898437501,0)" xlink:href="#aa"/><use transform="matrix(0.008173828125000001,0,0,0.008173828125000001,160.395029296875,0)" xlink:href="#bS"/></g><g id="R"><use transform="matrix(0.008173828125000001,0,0,0.008173828125000001,0,0)" xlink:href="#ag"/><use transform="matrix(0.008173828125000001,0,0,0.008173828125000001,9.75955078125,0)" xlink:href="#af"/><use transform="matrix(0.008173828125000001,0,0,0.008173828125000001,19.40466796875,0)" xlink:href="#bt"/><use transform="matrix(0.008173828125000001,0,0,0.008173828125000001,28.812744140625,0)" xlink:href="#an"/><use transform="matrix(0.008173828125000001,0,0,0.008173828125000001,32.866962890625004,0)" xlink:href="#at"/><use transform="matrix(0.008173828125000001,0,0,0.008173828125000001,42.266865234375004,0)" xlink:href="#am"/><use transform="matrix(0.008173828125000001,0,0,0.008173828125000001,48.830449218750005,0)" xlink:href="#bD"/><use transform="matrix(0.008173828125000001,0,0,0.008173828125000001,63.952031250000005,0)" xlink:href="#ak"/><use transform="matrix(0.008173828125000001,0,0,0.008173828125000001,72.787939453125,0)" xlink:href="#ao"/><use transform="matrix(0.008173828125000001,0,0,0.008173828125000001,83.054267578125,0)" xlink:href="#bq"/><use transform="matrix(0.008173828125000001,0,0,0.008173828125000001,89.1601171875,0)" xlink:href="#br"/><use transform="matrix(0.008173828125000001,0,0,0.008173828125000001,99.90052734375001,0)" xlink:href="#al"/><use transform="matrix(0.008173828125000001,0,0,0.008173828125000001,105.37699218750001,0)" xlink:href="#am"/><use transform="matrix(0.008173828125000001,0,0,0.008173828125000001,111.94057617187501,0)" xlink:href="#an"/><use transform="matrix(0.008173828125000001,0,0,0.008173828125000001,115.99479492187501,0)" xlink:href="#af"/><use transform="matrix(0.008173828125000001,0,0,0.008173828125000001,125.88512695312501,0)" xlink:href="#ao"/></g><path fill="#333" d="M128 359l88-567h206L266 359H128" id="bT"/><g id="S"><use transform="matrix(0.008173828125000001,0,0,0.008173828125000001,0,0)" xlink:href="#ar"/><use transform="matrix(0.008173828125000001,0,0,0.008173828125000001,14.663847656250002,0)" xlink:href="#ak"/><use transform="matrix(0.008173828125000001,0,0,0.008173828125000001,23.499755859375004,0)" xlink:href="#ao"/><use transform="matrix(0.008173828125000001,0,0,0.008173828125000001,33.766083984375,0)" xlink:href="#bT"/><use transform="matrix(0.008173828125000001,0,0,0.008173828125000001,38.588642578125004,0)" xlink:href="#ak"/><use transform="matrix(0.008173828125000001,0,0,0.008173828125000001,47.424550781250005,0)" xlink:href="#al"/><use transform="matrix(0.008173828125000001,0,0,0.008173828125000001,52.90101562500001,0)" xlink:href="#am"/><use transform="matrix(0.008173828125000001,0,0,0.008173828125000001,59.464599609375,0)" xlink:href="#an"/><use transform="matrix(0.008173828125000001,0,0,0.008173828125000001,63.51881835937501,0)" xlink:href="#af"/><use transform="matrix(0.008173828125000001,0,0,0.008173828125000001,73.40915039062499,0)" xlink:href="#ao"/></g><g id="T"><use transform="matrix(0.008173828125000001,0,0,0.008173828125000001,0,0)" xlink:href="#bt"/><use transform="matrix(0.008173828125000001,0,0,0.008173828125000001,9.081123046875001,0)" xlink:href="#ag"/><use transform="matrix(0.008173828125000001,0,0,0.008173828125000001,18.840673828125002,0)" xlink:href="#am"/><use transform="matrix(0.008173828125000001,0,0,0.008173828125000001,25.404257812500003,0)" xlink:href="#bD"/><use transform="matrix(0.008173828125000001,0,0,0.008173828125000001,40.525839843750006,0)" xlink:href="#ak"/><use transform="matrix(0.008173828125000001,0,0,0.008173828125000001,49.36174804687501,0)" xlink:href="#ao"/><use transform="matrix(0.008173828125000001,0,0,0.008173828125000001,59.62807617187501,0)" xlink:href="#ak"/><use transform="matrix(0.008173828125000001,0,0,0.008173828125000001,68.46398437500001,0)" xlink:href="#bq"/><use transform="matrix(0.008173828125000001,0,0,0.008173828125000001,74.56983398437501,0)" xlink:href="#bs"/><use transform="matrix(0.008173828125000001,0,0,0.008173828125000001,80.67568359375001,0)" xlink:href="#aj"/><use transform="matrix(0.008173828125000001,0,0,0.008173828125000001,85.49824218750001,0)" xlink:href="#bt"/><use transform="matrix(0.008173828125000001,0,0,0.008173828125000001,94.57936523437502,0)" xlink:href="#ae"/><use transform="matrix(0.008173828125000001,0,0,0.008173828125000001,104.616826171875,0)" xlink:href="#an"/><use transform="matrix(0.008173828125000001,0,0,0.008173828125000001,108.67104492187501,0)" xlink:href="#ai"/></g><path fill="#333" d="M678-1118v154H420V0H240v-964H20v-154h220v-149c0-194 155-293 318-293 85 0 141 18 168 30l-50 154c-19-6-47-17-97-17-111 0-159 58-159 166v109h258" id="bU"/><g id="U"><use transform="matrix(0.008173828125000001,0,0,0.008173828125000001,0,0)" xlink:href="#bt"/><use transform="matrix(0.008173828125000001,0,0,0.008173828125000001,9.081123046875001,0)" xlink:href="#ag"/><use transform="matrix(0.008173828125000001,0,0,0.008173828125000001,18.840673828125002,0)" xlink:href="#am"/><use transform="matrix(0.008173828125000001,0,0,0.008173828125000001,25.404257812500003,0)" xlink:href="#an"/><use transform="matrix(0.008173828125000001,0,0,0.008173828125000001,29.458476562500003,0)" xlink:href="#bU"/><use transform="matrix(0.008173828125000001,0,0,0.008173828125000001,35.65423828125,0)" xlink:href="#an"/><use transform="matrix(0.008173828125000001,0,0,0.008173828125000001,39.708457031250006,0)" xlink:href="#bu"/><use transform="matrix(0.008173828125000001,0,0,0.008173828125000001,49.43531250000001,0)" xlink:href="#at"/><use transform="matrix(0.008173828125000001,0,0,0.008173828125000001,58.83521484375001,0)" xlink:href="#am"/><use transform="matrix(0.008173828125000001,0,0,0.008173828125000001,65.13723632812501,0)" xlink:href="#bv"/><use transform="matrix(0.008173828125000001,0,0,0.008173828125000001,77.36528320312502,0)" xlink:href="#am"/><use transform="matrix(0.008173828125000001,0,0,0.008173828125000001,83.38939453125002,0)" xlink:href="#ag"/><use transform="matrix(0.008173828125000001,0,0,0.008173828125000001,93.1489453125,0)" xlink:href="#ai"/><use transform="matrix(0.008173828125000001,0,0,0.008173828125000001,103.39892578125001,0)" xlink:href="#an"/><use transform="matrix(0.008173828125000001,0,0,0.008173828125000001,107.45314453125002,0)" xlink:href="#al"/><use transform="matrix(0.008173828125000001,0,0,0.008173828125000001,112.76613281250002,0)" xlink:href="#ae"/><use transform="matrix(0.008173828125000001,0,0,0.008173828125000001,122.80359375000002,0)" xlink:href="#ak"/><use transform="matrix(0.008173828125000001,0,0,0.008173828125000001,131.63950195312503,0)" xlink:href="#bq"/><use transform="matrix(0.008173828125000001,0,0,0.008173828125000001,137.74535156250005,0)" xlink:href="#bs"/><use transform="matrix(0.008173828125000001,0,0,0.008173828125000001,143.85120117187503,0)" xlink:href="#aj"/><use transform="matrix(0.008173828125000001,0,0,0.008173828125000001,148.67375976562505,0)" xlink:href="#bt"/><use transform="matrix(0.008173828125000001,0,0,0.008173828125000001,157.75488281250006,0)" xlink:href="#ae"/><use transform="matrix(0.008173828125000001,0,0,0.008173828125000001,167.79234375000004,0)" xlink:href="#an"/><use transform="matrix(0.008173828125000001,0,0,0.008173828125000001,171.84656250000003,0)" xlink:href="#ai"/></g></defs></g></svg>